<?xml version="1.0" encoding="utf-8" standalone="no"?>
<!DOCTYPE svg PUBLIC "-//W3C//DTD SVG 1.1//EN"
  "http://www.w3.org/Graphics/SVG/1.1/DTD/svg11.dtd">
<svg xmlns:xlink="http://www.w3.org/1999/xlink" width="2160pt" height="504pt" viewBox="0 0 2160 504" xmlns="http://www.w3.org/2000/svg" version="1.1">
 <metadata>
  <rdf:RDF xmlns:dc="http://purl.org/dc/elements/1.1/" xmlns:cc="http://creativecommons.org/ns#" xmlns:rdf="http://www.w3.org/1999/02/22-rdf-syntax-ns#">
   <cc:Work>
    <dc:type rdf:resource="http://purl.org/dc/dcmitype/StillImage"/>
    <dc:date>2025-12-18T16:04:06.326033</dc:date>
    <dc:format>image/svg+xml</dc:format>
    <dc:creator>
     <cc:Agent>
      <dc:title>Matplotlib v3.10.7, https://matplotlib.org/</dc:title>
     </cc:Agent>
    </dc:creator>
   </cc:Work>
  </rdf:RDF>
 </metadata>
 <defs>
  <style type="text/css">*{stroke-linejoin: round; stroke-linecap: butt}</style>
 </defs>
 <g id="figure_1">
  <g id="patch_1">
   <path d="M 0 504 
L 2160 504 
L 2160 0 
L 0 0 
z
" style="fill: #ffffff"/>
  </g>
  <g id="axes_1">
   <g id="patch_2">
    <path d="M 270 448.56 
L 1944 448.56 
L 1944 60.48 
L 270 60.48 
z
" style="fill: #ffffff"/>
   </g>
   <g id="patch_3">
    <path d="M 346.090909 67549.527333 
L 356.037433 67549.527333 
L 356.037433 107.046734 
L 346.090909 107.046734 
z
" clip-path="url(#p47f374c2ae)" style="fill: #1f77b4; fill-opacity: 0.75"/>
   </g>
   <g id="patch_4">
    <path d="M 356.037433 67549.527333 
L 365.983957 67549.527333 
L 365.983957 86.663257 
L 356.037433 86.663257 
z
" clip-path="url(#p47f374c2ae)" style="fill: #1f77b4; fill-opacity: 0.75"/>
   </g>
   <g id="patch_5">
    <path d="M 365.983957 67549.527333 
L 375.930481 67549.527333 
L 375.930481 78.12 
L 365.983957 78.12 
z
" clip-path="url(#p47f374c2ae)" style="fill: #1f77b4; fill-opacity: 0.75"/>
   </g>
   <g id="patch_6">
    <path d="M 375.930481 67549.527333 
L 385.877005 67549.527333 
L 385.877005 109.320172 
L 375.930481 109.320172 
z
" clip-path="url(#p47f374c2ae)" style="fill: #1f77b4; fill-opacity: 0.75"/>
   </g>
   <g id="patch_7">
    <path d="M 385.877005 67549.527333 
L 395.823529 67549.527333 
L 395.823529 126.640008 
L 385.877005 126.640008 
z
" clip-path="url(#p47f374c2ae)" style="fill: #1f77b4; fill-opacity: 0.75"/>
   </g>
   <g id="patch_8">
    <path d="M 395.823529 67549.527333 
L 405.770053 67549.527333 
L 405.770053 155.127072 
L 395.823529 155.127072 
z
" clip-path="url(#p47f374c2ae)" style="fill: #1f77b4; fill-opacity: 0.75"/>
   </g>
   <g id="patch_9">
    <path d="M 405.770053 67549.527333 
L 415.716578 67549.527333 
L 415.716578 179.253296 
L 405.770053 179.253296 
z
" clip-path="url(#p47f374c2ae)" style="fill: #1f77b4; fill-opacity: 0.75"/>
   </g>
   <g id="patch_10">
    <path d="M 415.716578 67549.527333 
L 425.663102 67549.527333 
L 425.663102 208.810824 
L 415.716578 208.810824 
z
" clip-path="url(#p47f374c2ae)" style="fill: #1f77b4; fill-opacity: 0.75"/>
   </g>
   <g id="patch_11">
    <path d="M 425.663102 67549.527333 
L 435.609626 67549.527333 
L 435.609626 232.538354 
L 425.663102 232.538354 
z
" clip-path="url(#p47f374c2ae)" style="fill: #1f77b4; fill-opacity: 0.75"/>
   </g>
   <g id="patch_12">
    <path d="M 435.609626 67549.527333 
L 445.55615 67549.527333 
L 445.55615 256.4928 
L 435.609626 256.4928 
z
" clip-path="url(#p47f374c2ae)" style="fill: #1f77b4; fill-opacity: 0.75"/>
   </g>
   <g id="patch_13">
    <path d="M 445.55615 67549.527333 
L 455.502674 67549.527333 
L 455.502674 280.537455 
L 445.55615 280.537455 
z
" clip-path="url(#p47f374c2ae)" style="fill: #1f77b4; fill-opacity: 0.75"/>
   </g>
   <g id="patch_14">
    <path d="M 455.502674 67549.527333 
L 465.449198 67549.527333 
L 465.449198 297.271679 
L 455.502674 297.271679 
z
" clip-path="url(#p47f374c2ae)" style="fill: #1f77b4; fill-opacity: 0.75"/>
   </g>
   <g id="patch_15">
    <path d="M 465.449198 67549.527333 
L 475.395722 67549.527333 
L 475.395722 329.89643 
L 465.449198 329.89643 
z
" clip-path="url(#p47f374c2ae)" style="fill: #1f77b4; fill-opacity: 0.75"/>
   </g>
   <g id="patch_16">
    <path d="M 475.395722 67549.527333 
L 485.342246 67549.527333 
L 485.342246 345.091839 
L 475.395722 345.091839 
z
" clip-path="url(#p47f374c2ae)" style="fill: #1f77b4; fill-opacity: 0.75"/>
   </g>
   <g id="patch_17">
    <path d="M 485.342246 67549.527333 
L 495.28877 67549.527333 
L 495.28877 358.486858 
L 485.342246 358.486858 
z
" clip-path="url(#p47f374c2ae)" style="fill: #1f77b4; fill-opacity: 0.75"/>
   </g>
   <g id="patch_18">
    <path d="M 495.28877 67549.527333 
L 505.235294 67549.527333 
L 505.235294 390.510572 
L 495.28877 390.510572 
z
" clip-path="url(#p47f374c2ae)" style="fill: #1f77b4; fill-opacity: 0.75"/>
   </g>
   <g id="patch_19">
    <path d="M 505.235294 67549.527333 
L 515.181818 67549.527333 
L 515.181818 410.715286 
L 505.235294 410.715286 
z
" clip-path="url(#p47f374c2ae)" style="fill: #1f77b4; fill-opacity: 0.75"/>
   </g>
   <g id="patch_20">
    <path d="M 515.181818 67549.527333 
L 525.128342 67549.527333 
L 525.128342 398.896286 
L 515.181818 398.896286 
z
" clip-path="url(#p47f374c2ae)" style="fill: #1f77b4; fill-opacity: 0.75"/>
   </g>
   <g id="patch_21">
    <path d="M 525.128342 67549.527333 
L 535.074866 67549.527333 
L 535.074866 67549.527333 
L 525.128342 67549.527333 
z
" clip-path="url(#p47f374c2ae)" style="fill: #1f77b4; fill-opacity: 0.75"/>
   </g>
   <g id="patch_22">
    <path d="M 535.074866 67549.527333 
L 545.02139 67549.527333 
L 545.02139 410.715286 
L 535.074866 410.715286 
z
" clip-path="url(#p47f374c2ae)" style="fill: #1f77b4; fill-opacity: 0.75"/>
   </g>
   <g id="patch_23">
    <path d="M 545.02139 67549.527333 
L 554.967914 67549.527333 
L 554.967914 67549.527333 
L 545.02139 67549.527333 
z
" clip-path="url(#p47f374c2ae)" style="fill: #1f77b4; fill-opacity: 0.75"/>
   </g>
   <g id="patch_24">
    <path d="M 554.967914 67549.527333 
L 564.914439 67549.527333 
L 564.914439 410.715286 
L 554.967914 410.715286 
z
" clip-path="url(#p47f374c2ae)" style="fill: #1f77b4; fill-opacity: 0.75"/>
   </g>
   <g id="patch_25">
    <path d="M 564.914439 67549.527333 
L 574.860963 67549.527333 
L 574.860963 410.715286 
L 564.914439 410.715286 
z
" clip-path="url(#p47f374c2ae)" style="fill: #1f77b4; fill-opacity: 0.75"/>
   </g>
   <g id="patch_26">
    <path d="M 574.860963 67549.527333 
L 584.807487 67549.527333 
L 584.807487 67549.527333 
L 574.860963 67549.527333 
z
" clip-path="url(#p47f374c2ae)" style="fill: #1f77b4; fill-opacity: 0.75"/>
   </g>
   <g id="patch_27">
    <path d="M 584.807487 67549.527333 
L 594.754011 67549.527333 
L 594.754011 398.896286 
L 584.807487 398.896286 
z
" clip-path="url(#p47f374c2ae)" style="fill: #1f77b4; fill-opacity: 0.75"/>
   </g>
   <g id="patch_28">
    <path d="M 594.754011 67549.527333 
L 604.700535 67549.527333 
L 604.700535 398.896286 
L 594.754011 398.896286 
z
" clip-path="url(#p47f374c2ae)" style="fill: #1f77b4; fill-opacity: 0.75"/>
   </g>
   <g id="patch_29">
    <path d="M 604.700535 67549.527333 
L 614.647059 67549.527333 
L 614.647059 430.92 
L 604.700535 430.92 
z
" clip-path="url(#p47f374c2ae)" style="fill: #1f77b4; fill-opacity: 0.75"/>
   </g>
   <g id="patch_30">
    <path d="M 614.647059 67549.527333 
L 624.593583 67549.527333 
L 624.593583 430.92 
L 614.647059 430.92 
z
" clip-path="url(#p47f374c2ae)" style="fill: #1f77b4; fill-opacity: 0.75"/>
   </g>
   <g id="patch_31">
    <path d="M 624.593583 67549.527333 
L 634.540107 67549.527333 
L 634.540107 67549.527333 
L 624.593583 67549.527333 
z
" clip-path="url(#p47f374c2ae)" style="fill: #1f77b4; fill-opacity: 0.75"/>
   </g>
   <g id="patch_32">
    <path d="M 634.540107 67549.527333 
L 644.486631 67549.527333 
L 644.486631 67549.527333 
L 634.540107 67549.527333 
z
" clip-path="url(#p47f374c2ae)" style="fill: #1f77b4; fill-opacity: 0.75"/>
   </g>
   <g id="patch_33">
    <path d="M 644.486631 67549.527333 
L 654.433155 67549.527333 
L 654.433155 430.92 
L 644.486631 430.92 
z
" clip-path="url(#p47f374c2ae)" style="fill: #1f77b4; fill-opacity: 0.75"/>
   </g>
   <g id="patch_34">
    <path d="M 654.433155 67549.527333 
L 664.379679 67549.527333 
L 664.379679 67549.527333 
L 654.433155 67549.527333 
z
" clip-path="url(#p47f374c2ae)" style="fill: #1f77b4; fill-opacity: 0.75"/>
   </g>
   <g id="patch_35">
    <path d="M 664.379679 67549.527333 
L 674.326203 67549.527333 
L 674.326203 67549.527333 
L 664.379679 67549.527333 
z
" clip-path="url(#p47f374c2ae)" style="fill: #1f77b4; fill-opacity: 0.75"/>
   </g>
   <g id="patch_36">
    <path d="M 674.326203 67549.527333 
L 684.272727 67549.527333 
L 684.272727 67549.527333 
L 674.326203 67549.527333 
z
" clip-path="url(#p47f374c2ae)" style="fill: #1f77b4; fill-opacity: 0.75"/>
   </g>
   <g id="patch_37">
    <path d="M 684.272727 67549.527333 
L 694.219251 67549.527333 
L 694.219251 67549.527333 
L 684.272727 67549.527333 
z
" clip-path="url(#p47f374c2ae)" style="fill: #1f77b4; fill-opacity: 0.75"/>
   </g>
   <g id="patch_38">
    <path d="M 694.219251 67549.527333 
L 704.165775 67549.527333 
L 704.165775 67549.527333 
L 694.219251 67549.527333 
z
" clip-path="url(#p47f374c2ae)" style="fill: #1f77b4; fill-opacity: 0.75"/>
   </g>
   <g id="patch_39">
    <path d="M 704.165775 67549.527333 
L 714.112299 67549.527333 
L 714.112299 67549.527333 
L 704.165775 67549.527333 
z
" clip-path="url(#p47f374c2ae)" style="fill: #1f77b4; fill-opacity: 0.75"/>
   </g>
   <g id="patch_40">
    <path d="M 714.112299 67549.527333 
L 724.058824 67549.527333 
L 724.058824 67549.527333 
L 714.112299 67549.527333 
z
" clip-path="url(#p47f374c2ae)" style="fill: #1f77b4; fill-opacity: 0.75"/>
   </g>
   <g id="patch_41">
    <path d="M 724.058824 67549.527333 
L 734.005348 67549.527333 
L 734.005348 67549.527333 
L 724.058824 67549.527333 
z
" clip-path="url(#p47f374c2ae)" style="fill: #1f77b4; fill-opacity: 0.75"/>
   </g>
   <g id="patch_42">
    <path d="M 734.005348 67549.527333 
L 743.951872 67549.527333 
L 743.951872 67549.527333 
L 734.005348 67549.527333 
z
" clip-path="url(#p47f374c2ae)" style="fill: #1f77b4; fill-opacity: 0.75"/>
   </g>
   <g id="patch_43">
    <path d="M 743.951872 67549.527333 
L 753.898396 67549.527333 
L 753.898396 67549.527333 
L 743.951872 67549.527333 
z
" clip-path="url(#p47f374c2ae)" style="fill: #1f77b4; fill-opacity: 0.75"/>
   </g>
   <g id="patch_44">
    <path d="M 753.898396 67549.527333 
L 763.84492 67549.527333 
L 763.84492 67549.527333 
L 753.898396 67549.527333 
z
" clip-path="url(#p47f374c2ae)" style="fill: #1f77b4; fill-opacity: 0.75"/>
   </g>
   <g id="patch_45">
    <path d="M 763.84492 67549.527333 
L 773.791444 67549.527333 
L 773.791444 67549.527333 
L 763.84492 67549.527333 
z
" clip-path="url(#p47f374c2ae)" style="fill: #1f77b4; fill-opacity: 0.75"/>
   </g>
   <g id="patch_46">
    <path d="M 773.791444 67549.527333 
L 783.737968 67549.527333 
L 783.737968 430.92 
L 773.791444 430.92 
z
" clip-path="url(#p47f374c2ae)" style="fill: #1f77b4; fill-opacity: 0.75"/>
   </g>
   <g id="patch_47">
    <path d="M 783.737968 67549.527333 
L 793.684492 67549.527333 
L 793.684492 67549.527333 
L 783.737968 67549.527333 
z
" clip-path="url(#p47f374c2ae)" style="fill: #1f77b4; fill-opacity: 0.75"/>
   </g>
   <g id="patch_48">
    <path d="M 793.684492 67549.527333 
L 803.631016 67549.527333 
L 803.631016 67549.527333 
L 793.684492 67549.527333 
z
" clip-path="url(#p47f374c2ae)" style="fill: #1f77b4; fill-opacity: 0.75"/>
   </g>
   <g id="patch_49">
    <path d="M 803.631016 67549.527333 
L 813.57754 67549.527333 
L 813.57754 67549.527333 
L 803.631016 67549.527333 
z
" clip-path="url(#p47f374c2ae)" style="fill: #1f77b4; fill-opacity: 0.75"/>
   </g>
   <g id="patch_50">
    <path d="M 813.57754 67549.527333 
L 823.524064 67549.527333 
L 823.524064 67549.527333 
L 813.57754 67549.527333 
z
" clip-path="url(#p47f374c2ae)" style="fill: #1f77b4; fill-opacity: 0.75"/>
   </g>
   <g id="patch_51">
    <path d="M 823.524064 67549.527333 
L 833.470588 67549.527333 
L 833.470588 67549.527333 
L 823.524064 67549.527333 
z
" clip-path="url(#p47f374c2ae)" style="fill: #1f77b4; fill-opacity: 0.75"/>
   </g>
   <g id="patch_52">
    <path d="M 833.470588 67549.527333 
L 843.417112 67549.527333 
L 843.417112 67549.527333 
L 833.470588 67549.527333 
z
" clip-path="url(#p47f374c2ae)" style="fill: #1f77b4; fill-opacity: 0.75"/>
   </g>
   <g id="patch_53">
    <path d="M 843.417112 67549.527333 
L 853.363636 67549.527333 
L 853.363636 430.92 
L 843.417112 430.92 
z
" clip-path="url(#p47f374c2ae)" style="fill: #1f77b4; fill-opacity: 0.75"/>
   </g>
   <g id="patch_54">
    <path d="M 853.363636 67549.527333 
L 863.31016 67549.527333 
L 863.31016 67549.527333 
L 853.363636 67549.527333 
z
" clip-path="url(#p47f374c2ae)" style="fill: #1f77b4; fill-opacity: 0.75"/>
   </g>
   <g id="patch_55">
    <path d="M 863.31016 67549.527333 
L 873.256684 67549.527333 
L 873.256684 67549.527333 
L 863.31016 67549.527333 
z
" clip-path="url(#p47f374c2ae)" style="fill: #1f77b4; fill-opacity: 0.75"/>
   </g>
   <g id="patch_56">
    <path d="M 873.256684 67549.527333 
L 883.203209 67549.527333 
L 883.203209 67549.527333 
L 873.256684 67549.527333 
z
" clip-path="url(#p47f374c2ae)" style="fill: #1f77b4; fill-opacity: 0.75"/>
   </g>
   <g id="patch_57">
    <path d="M 883.203209 67549.527333 
L 893.149733 67549.527333 
L 893.149733 67549.527333 
L 883.203209 67549.527333 
z
" clip-path="url(#p47f374c2ae)" style="fill: #1f77b4; fill-opacity: 0.75"/>
   </g>
   <g id="patch_58">
    <path d="M 893.149733 67549.527333 
L 903.096257 67549.527333 
L 903.096257 67549.527333 
L 893.149733 67549.527333 
z
" clip-path="url(#p47f374c2ae)" style="fill: #1f77b4; fill-opacity: 0.75"/>
   </g>
   <g id="patch_59">
    <path d="M 903.096257 67549.527333 
L 913.042781 67549.527333 
L 913.042781 67549.527333 
L 903.096257 67549.527333 
z
" clip-path="url(#p47f374c2ae)" style="fill: #1f77b4; fill-opacity: 0.75"/>
   </g>
   <g id="patch_60">
    <path d="M 913.042781 67549.527333 
L 922.989305 67549.527333 
L 922.989305 67549.527333 
L 913.042781 67549.527333 
z
" clip-path="url(#p47f374c2ae)" style="fill: #1f77b4; fill-opacity: 0.75"/>
   </g>
   <g id="patch_61">
    <path d="M 922.989305 67549.527333 
L 932.935829 67549.527333 
L 932.935829 67549.527333 
L 922.989305 67549.527333 
z
" clip-path="url(#p47f374c2ae)" style="fill: #1f77b4; fill-opacity: 0.75"/>
   </g>
   <g id="patch_62">
    <path d="M 932.935829 67549.527333 
L 942.882353 67549.527333 
L 942.882353 67549.527333 
L 932.935829 67549.527333 
z
" clip-path="url(#p47f374c2ae)" style="fill: #1f77b4; fill-opacity: 0.75"/>
   </g>
   <g id="patch_63">
    <path d="M 942.882353 67549.527333 
L 952.828877 67549.527333 
L 952.828877 67549.527333 
L 942.882353 67549.527333 
z
" clip-path="url(#p47f374c2ae)" style="fill: #1f77b4; fill-opacity: 0.75"/>
   </g>
   <g id="patch_64">
    <path d="M 952.828877 67549.527333 
L 962.775401 67549.527333 
L 962.775401 67549.527333 
L 952.828877 67549.527333 
z
" clip-path="url(#p47f374c2ae)" style="fill: #1f77b4; fill-opacity: 0.75"/>
   </g>
   <g id="patch_65">
    <path d="M 962.775401 67549.527333 
L 972.721925 67549.527333 
L 972.721925 67549.527333 
L 962.775401 67549.527333 
z
" clip-path="url(#p47f374c2ae)" style="fill: #1f77b4; fill-opacity: 0.75"/>
   </g>
   <g id="patch_66">
    <path d="M 972.721925 67549.527333 
L 982.668449 67549.527333 
L 982.668449 67549.527333 
L 972.721925 67549.527333 
z
" clip-path="url(#p47f374c2ae)" style="fill: #1f77b4; fill-opacity: 0.75"/>
   </g>
   <g id="patch_67">
    <path d="M 982.668449 67549.527333 
L 992.614973 67549.527333 
L 992.614973 67549.527333 
L 982.668449 67549.527333 
z
" clip-path="url(#p47f374c2ae)" style="fill: #1f77b4; fill-opacity: 0.75"/>
   </g>
   <g id="patch_68">
    <path d="M 992.614973 67549.527333 
L 1002.561497 67549.527333 
L 1002.561497 67549.527333 
L 992.614973 67549.527333 
z
" clip-path="url(#p47f374c2ae)" style="fill: #1f77b4; fill-opacity: 0.75"/>
   </g>
   <g id="patch_69">
    <path d="M 1002.561497 67549.527333 
L 1012.508021 67549.527333 
L 1012.508021 67549.527333 
L 1002.561497 67549.527333 
z
" clip-path="url(#p47f374c2ae)" style="fill: #1f77b4; fill-opacity: 0.75"/>
   </g>
   <g id="patch_70">
    <path d="M 1012.508021 67549.527333 
L 1022.454545 67549.527333 
L 1022.454545 67549.527333 
L 1012.508021 67549.527333 
z
" clip-path="url(#p47f374c2ae)" style="fill: #1f77b4; fill-opacity: 0.75"/>
   </g>
   <g id="patch_71">
    <path d="M 1022.454545 67549.527333 
L 1032.40107 67549.527333 
L 1032.40107 67549.527333 
L 1022.454545 67549.527333 
z
" clip-path="url(#p47f374c2ae)" style="fill: #1f77b4; fill-opacity: 0.75"/>
   </g>
   <g id="patch_72">
    <path d="M 1032.40107 67549.527333 
L 1042.347594 67549.527333 
L 1042.347594 67549.527333 
L 1032.40107 67549.527333 
z
" clip-path="url(#p47f374c2ae)" style="fill: #1f77b4; fill-opacity: 0.75"/>
   </g>
   <g id="patch_73">
    <path d="M 1042.347594 67549.527333 
L 1052.294118 67549.527333 
L 1052.294118 67549.527333 
L 1042.347594 67549.527333 
z
" clip-path="url(#p47f374c2ae)" style="fill: #1f77b4; fill-opacity: 0.75"/>
   </g>
   <g id="patch_74">
    <path d="M 1052.294118 67549.527333 
L 1062.240642 67549.527333 
L 1062.240642 67549.527333 
L 1052.294118 67549.527333 
z
" clip-path="url(#p47f374c2ae)" style="fill: #1f77b4; fill-opacity: 0.75"/>
   </g>
   <g id="patch_75">
    <path d="M 1062.240642 67549.527333 
L 1072.187166 67549.527333 
L 1072.187166 67549.527333 
L 1062.240642 67549.527333 
z
" clip-path="url(#p47f374c2ae)" style="fill: #1f77b4; fill-opacity: 0.75"/>
   </g>
   <g id="patch_76">
    <path d="M 1072.187166 67549.527333 
L 1082.13369 67549.527333 
L 1082.13369 67549.527333 
L 1072.187166 67549.527333 
z
" clip-path="url(#p47f374c2ae)" style="fill: #1f77b4; fill-opacity: 0.75"/>
   </g>
   <g id="patch_77">
    <path d="M 1082.13369 67549.527333 
L 1092.080214 67549.527333 
L 1092.080214 67549.527333 
L 1082.13369 67549.527333 
z
" clip-path="url(#p47f374c2ae)" style="fill: #1f77b4; fill-opacity: 0.75"/>
   </g>
   <g id="patch_78">
    <path d="M 1092.080214 67549.527333 
L 1102.026738 67549.527333 
L 1102.026738 67549.527333 
L 1092.080214 67549.527333 
z
" clip-path="url(#p47f374c2ae)" style="fill: #1f77b4; fill-opacity: 0.75"/>
   </g>
   <g id="patch_79">
    <path d="M 1102.026738 67549.527333 
L 1111.973262 67549.527333 
L 1111.973262 67549.527333 
L 1102.026738 67549.527333 
z
" clip-path="url(#p47f374c2ae)" style="fill: #1f77b4; fill-opacity: 0.75"/>
   </g>
   <g id="patch_80">
    <path d="M 1111.973262 67549.527333 
L 1121.919786 67549.527333 
L 1121.919786 67549.527333 
L 1111.973262 67549.527333 
z
" clip-path="url(#p47f374c2ae)" style="fill: #1f77b4; fill-opacity: 0.75"/>
   </g>
   <g id="patch_81">
    <path d="M 1121.919786 67549.527333 
L 1131.86631 67549.527333 
L 1131.86631 67549.527333 
L 1121.919786 67549.527333 
z
" clip-path="url(#p47f374c2ae)" style="fill: #1f77b4; fill-opacity: 0.75"/>
   </g>
   <g id="patch_82">
    <path d="M 1131.86631 67549.527333 
L 1141.812834 67549.527333 
L 1141.812834 67549.527333 
L 1131.86631 67549.527333 
z
" clip-path="url(#p47f374c2ae)" style="fill: #1f77b4; fill-opacity: 0.75"/>
   </g>
   <g id="patch_83">
    <path d="M 1141.812834 67549.527333 
L 1151.759358 67549.527333 
L 1151.759358 67549.527333 
L 1141.812834 67549.527333 
z
" clip-path="url(#p47f374c2ae)" style="fill: #1f77b4; fill-opacity: 0.75"/>
   </g>
   <g id="patch_84">
    <path d="M 1151.759358 67549.527333 
L 1161.705882 67549.527333 
L 1161.705882 67549.527333 
L 1151.759358 67549.527333 
z
" clip-path="url(#p47f374c2ae)" style="fill: #1f77b4; fill-opacity: 0.75"/>
   </g>
   <g id="patch_85">
    <path d="M 1161.705882 67549.527333 
L 1171.652406 67549.527333 
L 1171.652406 67549.527333 
L 1161.705882 67549.527333 
z
" clip-path="url(#p47f374c2ae)" style="fill: #1f77b4; fill-opacity: 0.75"/>
   </g>
   <g id="patch_86">
    <path d="M 1171.652406 67549.527333 
L 1181.59893 67549.527333 
L 1181.59893 67549.527333 
L 1171.652406 67549.527333 
z
" clip-path="url(#p47f374c2ae)" style="fill: #1f77b4; fill-opacity: 0.75"/>
   </g>
   <g id="patch_87">
    <path d="M 1181.59893 67549.527333 
L 1191.545455 67549.527333 
L 1191.545455 67549.527333 
L 1181.59893 67549.527333 
z
" clip-path="url(#p47f374c2ae)" style="fill: #1f77b4; fill-opacity: 0.75"/>
   </g>
   <g id="patch_88">
    <path d="M 1191.545455 67549.527333 
L 1201.491979 67549.527333 
L 1201.491979 67549.527333 
L 1191.545455 67549.527333 
z
" clip-path="url(#p47f374c2ae)" style="fill: #1f77b4; fill-opacity: 0.75"/>
   </g>
   <g id="patch_89">
    <path d="M 1201.491979 67549.527333 
L 1211.438503 67549.527333 
L 1211.438503 67549.527333 
L 1201.491979 67549.527333 
z
" clip-path="url(#p47f374c2ae)" style="fill: #1f77b4; fill-opacity: 0.75"/>
   </g>
   <g id="patch_90">
    <path d="M 1211.438503 67549.527333 
L 1221.385027 67549.527333 
L 1221.385027 67549.527333 
L 1211.438503 67549.527333 
z
" clip-path="url(#p47f374c2ae)" style="fill: #1f77b4; fill-opacity: 0.75"/>
   </g>
   <g id="patch_91">
    <path d="M 1221.385027 67549.527333 
L 1231.331551 67549.527333 
L 1231.331551 67549.527333 
L 1221.385027 67549.527333 
z
" clip-path="url(#p47f374c2ae)" style="fill: #1f77b4; fill-opacity: 0.75"/>
   </g>
   <g id="patch_92">
    <path d="M 1231.331551 67549.527333 
L 1241.278075 67549.527333 
L 1241.278075 67549.527333 
L 1231.331551 67549.527333 
z
" clip-path="url(#p47f374c2ae)" style="fill: #1f77b4; fill-opacity: 0.75"/>
   </g>
   <g id="patch_93">
    <path d="M 1241.278075 67549.527333 
L 1251.224599 67549.527333 
L 1251.224599 67549.527333 
L 1241.278075 67549.527333 
z
" clip-path="url(#p47f374c2ae)" style="fill: #1f77b4; fill-opacity: 0.75"/>
   </g>
   <g id="patch_94">
    <path d="M 1251.224599 67549.527333 
L 1261.171123 67549.527333 
L 1261.171123 430.92 
L 1251.224599 430.92 
z
" clip-path="url(#p47f374c2ae)" style="fill: #1f77b4; fill-opacity: 0.75"/>
   </g>
   <g id="patch_95">
    <path d="M 1261.171123 67549.527333 
L 1271.117647 67549.527333 
L 1271.117647 430.92 
L 1261.171123 430.92 
z
" clip-path="url(#p47f374c2ae)" style="fill: #1f77b4; fill-opacity: 0.75"/>
   </g>
   <g id="patch_96">
    <path d="M 1271.117647 67549.527333 
L 1281.064171 67549.527333 
L 1281.064171 67549.527333 
L 1271.117647 67549.527333 
z
" clip-path="url(#p47f374c2ae)" style="fill: #1f77b4; fill-opacity: 0.75"/>
   </g>
   <g id="patch_97">
    <path d="M 1281.064171 67549.527333 
L 1291.010695 67549.527333 
L 1291.010695 67549.527333 
L 1281.064171 67549.527333 
z
" clip-path="url(#p47f374c2ae)" style="fill: #1f77b4; fill-opacity: 0.75"/>
   </g>
   <g id="patch_98">
    <path d="M 1291.010695 67549.527333 
L 1300.957219 67549.527333 
L 1300.957219 430.92 
L 1291.010695 430.92 
z
" clip-path="url(#p47f374c2ae)" style="fill: #1f77b4; fill-opacity: 0.75"/>
   </g>
   <g id="patch_99">
    <path d="M 1300.957219 67549.527333 
L 1310.903743 67549.527333 
L 1310.903743 430.92 
L 1300.957219 430.92 
z
" clip-path="url(#p47f374c2ae)" style="fill: #1f77b4; fill-opacity: 0.75"/>
   </g>
   <g id="patch_100">
    <path d="M 1310.903743 67549.527333 
L 1320.850267 67549.527333 
L 1320.850267 430.92 
L 1310.903743 430.92 
z
" clip-path="url(#p47f374c2ae)" style="fill: #1f77b4; fill-opacity: 0.75"/>
   </g>
   <g id="patch_101">
    <path d="M 1320.850267 67549.527333 
L 1330.796791 67549.527333 
L 1330.796791 67549.527333 
L 1320.850267 67549.527333 
z
" clip-path="url(#p47f374c2ae)" style="fill: #1f77b4; fill-opacity: 0.75"/>
   </g>
   <g id="patch_102">
    <path d="M 1330.796791 67549.527333 
L 1340.743316 67549.527333 
L 1340.743316 430.92 
L 1330.796791 430.92 
z
" clip-path="url(#p47f374c2ae)" style="fill: #1f77b4; fill-opacity: 0.75"/>
   </g>
   <g id="patch_103">
    <path d="M 1340.743316 67549.527333 
L 1350.68984 67549.527333 
L 1350.68984 430.92 
L 1340.743316 430.92 
z
" clip-path="url(#p47f374c2ae)" style="fill: #1f77b4; fill-opacity: 0.75"/>
   </g>
   <g id="patch_104">
    <path d="M 1350.68984 67549.527333 
L 1360.636364 67549.527333 
L 1360.636364 410.715286 
L 1350.68984 410.715286 
z
" clip-path="url(#p47f374c2ae)" style="fill: #1f77b4; fill-opacity: 0.75"/>
   </g>
   <g id="patch_105">
    <path d="M 1360.636364 67549.527333 
L 1370.582888 67549.527333 
L 1370.582888 67549.527333 
L 1360.636364 67549.527333 
z
" clip-path="url(#p47f374c2ae)" style="fill: #1f77b4; fill-opacity: 0.75"/>
   </g>
   <g id="patch_106">
    <path d="M 1370.582888 67549.527333 
L 1380.529412 67549.527333 
L 1380.529412 384.006107 
L 1370.582888 384.006107 
z
" clip-path="url(#p47f374c2ae)" style="fill: #1f77b4; fill-opacity: 0.75"/>
   </g>
   <g id="patch_107">
    <path d="M 1380.529412 67549.527333 
L 1390.475936 67549.527333 
L 1390.475936 430.92 
L 1380.529412 430.92 
z
" clip-path="url(#p47f374c2ae)" style="fill: #1f77b4; fill-opacity: 0.75"/>
   </g>
   <g id="patch_108">
    <path d="M 1390.475936 67549.527333 
L 1400.42246 67549.527333 
L 1400.42246 390.510572 
L 1390.475936 390.510572 
z
" clip-path="url(#p47f374c2ae)" style="fill: #1f77b4; fill-opacity: 0.75"/>
   </g>
   <g id="patch_109">
    <path d="M 1400.42246 67549.527333 
L 1410.368984 67549.527333 
L 1410.368984 410.715286 
L 1400.42246 410.715286 
z
" clip-path="url(#p47f374c2ae)" style="fill: #1f77b4; fill-opacity: 0.75"/>
   </g>
   <g id="patch_110">
    <path d="M 1410.368984 67549.527333 
L 1420.315508 67549.527333 
L 1420.315508 430.92 
L 1410.368984 430.92 
z
" clip-path="url(#p47f374c2ae)" style="fill: #1f77b4; fill-opacity: 0.75"/>
   </g>
   <g id="patch_111">
    <path d="M 1420.315508 67549.527333 
L 1430.262032 67549.527333 
L 1430.262032 430.92 
L 1420.315508 430.92 
z
" clip-path="url(#p47f374c2ae)" style="fill: #1f77b4; fill-opacity: 0.75"/>
   </g>
   <g id="patch_112">
    <path d="M 1430.262032 67549.527333 
L 1440.208556 67549.527333 
L 1440.208556 398.896286 
L 1430.262032 398.896286 
z
" clip-path="url(#p47f374c2ae)" style="fill: #1f77b4; fill-opacity: 0.75"/>
   </g>
   <g id="patch_113">
    <path d="M 1440.208556 67549.527333 
L 1450.15508 67549.527333 
L 1450.15508 384.006107 
L 1440.208556 384.006107 
z
" clip-path="url(#p47f374c2ae)" style="fill: #1f77b4; fill-opacity: 0.75"/>
   </g>
   <g id="patch_114">
    <path d="M 1450.15508 67549.527333 
L 1460.101604 67549.527333 
L 1460.101604 430.92 
L 1450.15508 430.92 
z
" clip-path="url(#p47f374c2ae)" style="fill: #1f77b4; fill-opacity: 0.75"/>
   </g>
   <g id="patch_115">
    <path d="M 1460.101604 67549.527333 
L 1470.048128 67549.527333 
L 1470.048128 67549.527333 
L 1460.101604 67549.527333 
z
" clip-path="url(#p47f374c2ae)" style="fill: #1f77b4; fill-opacity: 0.75"/>
   </g>
   <g id="patch_116">
    <path d="M 1470.048128 67549.527333 
L 1479.994652 67549.527333 
L 1479.994652 410.715286 
L 1470.048128 410.715286 
z
" clip-path="url(#p47f374c2ae)" style="fill: #1f77b4; fill-opacity: 0.75"/>
   </g>
   <g id="patch_117">
    <path d="M 1479.994652 67549.527333 
L 1489.941176 67549.527333 
L 1489.941176 430.92 
L 1479.994652 430.92 
z
" clip-path="url(#p47f374c2ae)" style="fill: #1f77b4; fill-opacity: 0.75"/>
   </g>
   <g id="patch_118">
    <path d="M 1489.941176 67549.527333 
L 1499.887701 67549.527333 
L 1499.887701 67549.527333 
L 1489.941176 67549.527333 
z
" clip-path="url(#p47f374c2ae)" style="fill: #1f77b4; fill-opacity: 0.75"/>
   </g>
   <g id="patch_119">
    <path d="M 1499.887701 67549.527333 
L 1509.834225 67549.527333 
L 1509.834225 430.92 
L 1499.887701 430.92 
z
" clip-path="url(#p47f374c2ae)" style="fill: #1f77b4; fill-opacity: 0.75"/>
   </g>
   <g id="patch_120">
    <path d="M 1509.834225 67549.527333 
L 1519.780749 67549.527333 
L 1519.780749 67549.527333 
L 1509.834225 67549.527333 
z
" clip-path="url(#p47f374c2ae)" style="fill: #1f77b4; fill-opacity: 0.75"/>
   </g>
   <g id="patch_121">
    <path d="M 1519.780749 67549.527333 
L 1529.727273 67549.527333 
L 1529.727273 67549.527333 
L 1519.780749 67549.527333 
z
" clip-path="url(#p47f374c2ae)" style="fill: #1f77b4; fill-opacity: 0.75"/>
   </g>
   <g id="patch_122">
    <path d="M 1529.727273 67549.527333 
L 1539.673797 67549.527333 
L 1539.673797 430.92 
L 1529.727273 430.92 
z
" clip-path="url(#p47f374c2ae)" style="fill: #1f77b4; fill-opacity: 0.75"/>
   </g>
   <g id="patch_123">
    <path d="M 1539.673797 67549.527333 
L 1549.620321 67549.527333 
L 1549.620321 67549.527333 
L 1539.673797 67549.527333 
z
" clip-path="url(#p47f374c2ae)" style="fill: #1f77b4; fill-opacity: 0.75"/>
   </g>
   <g id="patch_124">
    <path d="M 1549.620321 67549.527333 
L 1559.566845 67549.527333 
L 1559.566845 67549.527333 
L 1549.620321 67549.527333 
z
" clip-path="url(#p47f374c2ae)" style="fill: #1f77b4; fill-opacity: 0.75"/>
   </g>
   <g id="patch_125">
    <path d="M 1559.566845 67549.527333 
L 1569.513369 67549.527333 
L 1569.513369 67549.527333 
L 1559.566845 67549.527333 
z
" clip-path="url(#p47f374c2ae)" style="fill: #1f77b4; fill-opacity: 0.75"/>
   </g>
   <g id="patch_126">
    <path d="M 1569.513369 67549.527333 
L 1579.459893 67549.527333 
L 1579.459893 67549.527333 
L 1569.513369 67549.527333 
z
" clip-path="url(#p47f374c2ae)" style="fill: #1f77b4; fill-opacity: 0.75"/>
   </g>
   <g id="patch_127">
    <path d="M 1579.459893 67549.527333 
L 1589.406417 67549.527333 
L 1589.406417 67549.527333 
L 1579.459893 67549.527333 
z
" clip-path="url(#p47f374c2ae)" style="fill: #1f77b4; fill-opacity: 0.75"/>
   </g>
   <g id="patch_128">
    <path d="M 1589.406417 67549.527333 
L 1599.352941 67549.527333 
L 1599.352941 67549.527333 
L 1589.406417 67549.527333 
z
" clip-path="url(#p47f374c2ae)" style="fill: #1f77b4; fill-opacity: 0.75"/>
   </g>
   <g id="patch_129">
    <path d="M 1599.352941 67549.527333 
L 1609.299465 67549.527333 
L 1609.299465 67549.527333 
L 1599.352941 67549.527333 
z
" clip-path="url(#p47f374c2ae)" style="fill: #1f77b4; fill-opacity: 0.75"/>
   </g>
   <g id="patch_130">
    <path d="M 1609.299465 67549.527333 
L 1619.245989 67549.527333 
L 1619.245989 67549.527333 
L 1609.299465 67549.527333 
z
" clip-path="url(#p47f374c2ae)" style="fill: #1f77b4; fill-opacity: 0.75"/>
   </g>
   <g id="patch_131">
    <path d="M 1619.245989 67549.527333 
L 1629.192513 67549.527333 
L 1629.192513 67549.527333 
L 1619.245989 67549.527333 
z
" clip-path="url(#p47f374c2ae)" style="fill: #1f77b4; fill-opacity: 0.75"/>
   </g>
   <g id="patch_132">
    <path d="M 1629.192513 67549.527333 
L 1639.139037 67549.527333 
L 1639.139037 67549.527333 
L 1629.192513 67549.527333 
z
" clip-path="url(#p47f374c2ae)" style="fill: #1f77b4; fill-opacity: 0.75"/>
   </g>
   <g id="patch_133">
    <path d="M 1639.139037 67549.527333 
L 1649.085561 67549.527333 
L 1649.085561 67549.527333 
L 1639.139037 67549.527333 
z
" clip-path="url(#p47f374c2ae)" style="fill: #1f77b4; fill-opacity: 0.75"/>
   </g>
   <g id="patch_134">
    <path d="M 1649.085561 67549.527333 
L 1659.032086 67549.527333 
L 1659.032086 67549.527333 
L 1649.085561 67549.527333 
z
" clip-path="url(#p47f374c2ae)" style="fill: #1f77b4; fill-opacity: 0.75"/>
   </g>
   <g id="patch_135">
    <path d="M 1659.032086 67549.527333 
L 1668.97861 67549.527333 
L 1668.97861 67549.527333 
L 1659.032086 67549.527333 
z
" clip-path="url(#p47f374c2ae)" style="fill: #1f77b4; fill-opacity: 0.75"/>
   </g>
   <g id="patch_136">
    <path d="M 1668.97861 67549.527333 
L 1678.925134 67549.527333 
L 1678.925134 67549.527333 
L 1668.97861 67549.527333 
z
" clip-path="url(#p47f374c2ae)" style="fill: #1f77b4; fill-opacity: 0.75"/>
   </g>
   <g id="patch_137">
    <path d="M 1678.925134 67549.527333 
L 1688.871658 67549.527333 
L 1688.871658 67549.527333 
L 1678.925134 67549.527333 
z
" clip-path="url(#p47f374c2ae)" style="fill: #1f77b4; fill-opacity: 0.75"/>
   </g>
   <g id="patch_138">
    <path d="M 1688.871658 67549.527333 
L 1698.818182 67549.527333 
L 1698.818182 67549.527333 
L 1688.871658 67549.527333 
z
" clip-path="url(#p47f374c2ae)" style="fill: #1f77b4; fill-opacity: 0.75"/>
   </g>
   <g id="patch_139">
    <path d="M 1698.818182 67549.527333 
L 1708.764706 67549.527333 
L 1708.764706 67549.527333 
L 1698.818182 67549.527333 
z
" clip-path="url(#p47f374c2ae)" style="fill: #1f77b4; fill-opacity: 0.75"/>
   </g>
   <g id="patch_140">
    <path d="M 1708.764706 67549.527333 
L 1718.71123 67549.527333 
L 1718.71123 67549.527333 
L 1708.764706 67549.527333 
z
" clip-path="url(#p47f374c2ae)" style="fill: #1f77b4; fill-opacity: 0.75"/>
   </g>
   <g id="patch_141">
    <path d="M 1718.71123 67549.527333 
L 1728.657754 67549.527333 
L 1728.657754 67549.527333 
L 1718.71123 67549.527333 
z
" clip-path="url(#p47f374c2ae)" style="fill: #1f77b4; fill-opacity: 0.75"/>
   </g>
   <g id="patch_142">
    <path d="M 1728.657754 67549.527333 
L 1738.604278 67549.527333 
L 1738.604278 67549.527333 
L 1728.657754 67549.527333 
z
" clip-path="url(#p47f374c2ae)" style="fill: #1f77b4; fill-opacity: 0.75"/>
   </g>
   <g id="patch_143">
    <path d="M 1738.604278 67549.527333 
L 1748.550802 67549.527333 
L 1748.550802 67549.527333 
L 1738.604278 67549.527333 
z
" clip-path="url(#p47f374c2ae)" style="fill: #1f77b4; fill-opacity: 0.75"/>
   </g>
   <g id="patch_144">
    <path d="M 1748.550802 67549.527333 
L 1758.497326 67549.527333 
L 1758.497326 67549.527333 
L 1748.550802 67549.527333 
z
" clip-path="url(#p47f374c2ae)" style="fill: #1f77b4; fill-opacity: 0.75"/>
   </g>
   <g id="patch_145">
    <path d="M 1758.497326 67549.527333 
L 1768.44385 67549.527333 
L 1768.44385 67549.527333 
L 1758.497326 67549.527333 
z
" clip-path="url(#p47f374c2ae)" style="fill: #1f77b4; fill-opacity: 0.75"/>
   </g>
   <g id="patch_146">
    <path d="M 1768.44385 67549.527333 
L 1778.390374 67549.527333 
L 1778.390374 67549.527333 
L 1768.44385 67549.527333 
z
" clip-path="url(#p47f374c2ae)" style="fill: #1f77b4; fill-opacity: 0.75"/>
   </g>
   <g id="patch_147">
    <path d="M 1778.390374 67549.527333 
L 1788.336898 67549.527333 
L 1788.336898 67549.527333 
L 1778.390374 67549.527333 
z
" clip-path="url(#p47f374c2ae)" style="fill: #1f77b4; fill-opacity: 0.75"/>
   </g>
   <g id="patch_148">
    <path d="M 1788.336898 67549.527333 
L 1798.283422 67549.527333 
L 1798.283422 67549.527333 
L 1788.336898 67549.527333 
z
" clip-path="url(#p47f374c2ae)" style="fill: #1f77b4; fill-opacity: 0.75"/>
   </g>
   <g id="patch_149">
    <path d="M 1798.283422 67549.527333 
L 1808.229947 67549.527333 
L 1808.229947 67549.527333 
L 1798.283422 67549.527333 
z
" clip-path="url(#p47f374c2ae)" style="fill: #1f77b4; fill-opacity: 0.75"/>
   </g>
   <g id="patch_150">
    <path d="M 1808.229947 67549.527333 
L 1818.176471 67549.527333 
L 1818.176471 67549.527333 
L 1808.229947 67549.527333 
z
" clip-path="url(#p47f374c2ae)" style="fill: #1f77b4; fill-opacity: 0.75"/>
   </g>
   <g id="patch_151">
    <path d="M 1818.176471 67549.527333 
L 1828.122995 67549.527333 
L 1828.122995 430.92 
L 1818.176471 430.92 
z
" clip-path="url(#p47f374c2ae)" style="fill: #1f77b4; fill-opacity: 0.75"/>
   </g>
   <g id="patch_152">
    <path d="M 1828.122995 67549.527333 
L 1838.069519 67549.527333 
L 1838.069519 67549.527333 
L 1828.122995 67549.527333 
z
" clip-path="url(#p47f374c2ae)" style="fill: #1f77b4; fill-opacity: 0.75"/>
   </g>
   <g id="patch_153">
    <path d="M 1838.069519 67549.527333 
L 1848.016043 67549.527333 
L 1848.016043 67549.527333 
L 1838.069519 67549.527333 
z
" clip-path="url(#p47f374c2ae)" style="fill: #1f77b4; fill-opacity: 0.75"/>
   </g>
   <g id="patch_154">
    <path d="M 1848.016043 67549.527333 
L 1857.962567 67549.527333 
L 1857.962567 67549.527333 
L 1848.016043 67549.527333 
z
" clip-path="url(#p47f374c2ae)" style="fill: #1f77b4; fill-opacity: 0.75"/>
   </g>
   <g id="patch_155">
    <path d="M 1857.962567 67549.527333 
L 1867.909091 67549.527333 
L 1867.909091 430.92 
L 1857.962567 430.92 
z
" clip-path="url(#p47f374c2ae)" style="fill: #1f77b4; fill-opacity: 0.75"/>
   </g>
   <g id="matplotlib.axis_1">
    <g id="xtick_1">
     <g id="line2d_1">
      <path d="M 342.773956 448.56 
L 342.773956 60.48 
" clip-path="url(#p47f374c2ae)" style="fill: none; stroke-dasharray: 2.96,1.28; stroke-dashoffset: 0; stroke: #b0b0b0; stroke-opacity: 0.6; stroke-width: 0.8"/>
     </g>
     <g id="line2d_2">
      <defs>
       <path id="m2b3a71e124" d="M 0 0 
L 0 3.5 
" style="stroke: #000000; stroke-width: 0.8"/>
      </defs>
      <g>
       <use xlink:href="#m2b3a71e124" x="342.773956" y="448.56" style="stroke: #000000; stroke-width: 0.8"/>
      </g>
     </g>
     <g id="text_1">
      <!-- 0 -->
      <g transform="translate(339.592706 463.158437) scale(0.1 -0.1)">
       <defs>
        <path id="DejaVuSans-30" d="M 2034 4250 
Q 1547 4250 1301 3770 
Q 1056 3291 1056 2328 
Q 1056 1369 1301 889 
Q 1547 409 2034 409 
Q 2525 409 2770 889 
Q 3016 1369 3016 2328 
Q 3016 3291 2770 3770 
Q 2525 4250 2034 4250 
z
M 2034 4750 
Q 2819 4750 3233 4129 
Q 3647 3509 3647 2328 
Q 3647 1150 3233 529 
Q 2819 -91 2034 -91 
Q 1250 -91 836 529 
Q 422 1150 422 2328 
Q 422 3509 836 4129 
Q 1250 4750 2034 4750 
z
" transform="scale(0.015625)"/>
       </defs>
       <use xlink:href="#DejaVuSans-30"/>
      </g>
     </g>
    </g>
    <g id="xtick_2">
     <g id="line2d_3">
      <path d="M 674.469287 448.56 
L 674.469287 60.48 
" clip-path="url(#p47f374c2ae)" style="fill: none; stroke-dasharray: 2.96,1.28; stroke-dashoffset: 0; stroke: #b0b0b0; stroke-opacity: 0.6; stroke-width: 0.8"/>
     </g>
     <g id="line2d_4">
      <g>
       <use xlink:href="#m2b3a71e124" x="674.469287" y="448.56" style="stroke: #000000; stroke-width: 0.8"/>
      </g>
     </g>
     <g id="text_2">
      <!-- 1000 -->
      <g transform="translate(661.744287 463.158437) scale(0.1 -0.1)">
       <defs>
        <path id="DejaVuSans-31" d="M 794 531 
L 1825 531 
L 1825 4091 
L 703 3866 
L 703 4441 
L 1819 4666 
L 2450 4666 
L 2450 531 
L 3481 531 
L 3481 0 
L 794 0 
L 794 531 
z
" transform="scale(0.015625)"/>
       </defs>
       <use xlink:href="#DejaVuSans-31"/>
       <use xlink:href="#DejaVuSans-30" transform="translate(63.623047 0)"/>
       <use xlink:href="#DejaVuSans-30" transform="translate(127.246094 0)"/>
       <use xlink:href="#DejaVuSans-30" transform="translate(190.869141 0)"/>
      </g>
     </g>
    </g>
    <g id="xtick_3">
     <g id="line2d_5">
      <path d="M 1006.164619 448.56 
L 1006.164619 60.48 
" clip-path="url(#p47f374c2ae)" style="fill: none; stroke-dasharray: 2.96,1.28; stroke-dashoffset: 0; stroke: #b0b0b0; stroke-opacity: 0.6; stroke-width: 0.8"/>
     </g>
     <g id="line2d_6">
      <g>
       <use xlink:href="#m2b3a71e124" x="1006.164619" y="448.56" style="stroke: #000000; stroke-width: 0.8"/>
      </g>
     </g>
     <g id="text_3">
      <!-- 2000 -->
      <g transform="translate(993.439619 463.158437) scale(0.1 -0.1)">
       <defs>
        <path id="DejaVuSans-32" d="M 1228 531 
L 3431 531 
L 3431 0 
L 469 0 
L 469 531 
Q 828 903 1448 1529 
Q 2069 2156 2228 2338 
Q 2531 2678 2651 2914 
Q 2772 3150 2772 3378 
Q 2772 3750 2511 3984 
Q 2250 4219 1831 4219 
Q 1534 4219 1204 4116 
Q 875 4013 500 3803 
L 500 4441 
Q 881 4594 1212 4672 
Q 1544 4750 1819 4750 
Q 2544 4750 2975 4387 
Q 3406 4025 3406 3419 
Q 3406 3131 3298 2873 
Q 3191 2616 2906 2266 
Q 2828 2175 2409 1742 
Q 1991 1309 1228 531 
z
" transform="scale(0.015625)"/>
       </defs>
       <use xlink:href="#DejaVuSans-32"/>
       <use xlink:href="#DejaVuSans-30" transform="translate(63.623047 0)"/>
       <use xlink:href="#DejaVuSans-30" transform="translate(127.246094 0)"/>
       <use xlink:href="#DejaVuSans-30" transform="translate(190.869141 0)"/>
      </g>
     </g>
    </g>
    <g id="xtick_4">
     <g id="line2d_7">
      <path d="M 1337.859951 448.56 
L 1337.859951 60.48 
" clip-path="url(#p47f374c2ae)" style="fill: none; stroke-dasharray: 2.96,1.28; stroke-dashoffset: 0; stroke: #b0b0b0; stroke-opacity: 0.6; stroke-width: 0.8"/>
     </g>
     <g id="line2d_8">
      <g>
       <use xlink:href="#m2b3a71e124" x="1337.859951" y="448.56" style="stroke: #000000; stroke-width: 0.8"/>
      </g>
     </g>
     <g id="text_4">
      <!-- 3000 -->
      <g transform="translate(1325.134951 463.158437) scale(0.1 -0.1)">
       <defs>
        <path id="DejaVuSans-33" d="M 2597 2516 
Q 3050 2419 3304 2112 
Q 3559 1806 3559 1356 
Q 3559 666 3084 287 
Q 2609 -91 1734 -91 
Q 1441 -91 1130 -33 
Q 819 25 488 141 
L 488 750 
Q 750 597 1062 519 
Q 1375 441 1716 441 
Q 2309 441 2620 675 
Q 2931 909 2931 1356 
Q 2931 1769 2642 2001 
Q 2353 2234 1838 2234 
L 1294 2234 
L 1294 2753 
L 1863 2753 
Q 2328 2753 2575 2939 
Q 2822 3125 2822 3475 
Q 2822 3834 2567 4026 
Q 2313 4219 1838 4219 
Q 1578 4219 1281 4162 
Q 984 4106 628 3988 
L 628 4550 
Q 988 4650 1302 4700 
Q 1616 4750 1894 4750 
Q 2613 4750 3031 4423 
Q 3450 4097 3450 3541 
Q 3450 3153 3228 2886 
Q 3006 2619 2597 2516 
z
" transform="scale(0.015625)"/>
       </defs>
       <use xlink:href="#DejaVuSans-33"/>
       <use xlink:href="#DejaVuSans-30" transform="translate(63.623047 0)"/>
       <use xlink:href="#DejaVuSans-30" transform="translate(127.246094 0)"/>
       <use xlink:href="#DejaVuSans-30" transform="translate(190.869141 0)"/>
      </g>
     </g>
    </g>
    <g id="xtick_5">
     <g id="line2d_9">
      <path d="M 1669.555283 448.56 
L 1669.555283 60.48 
" clip-path="url(#p47f374c2ae)" style="fill: none; stroke-dasharray: 2.96,1.28; stroke-dashoffset: 0; stroke: #b0b0b0; stroke-opacity: 0.6; stroke-width: 0.8"/>
     </g>
     <g id="line2d_10">
      <g>
       <use xlink:href="#m2b3a71e124" x="1669.555283" y="448.56" style="stroke: #000000; stroke-width: 0.8"/>
      </g>
     </g>
     <g id="text_5">
      <!-- 4000 -->
      <g transform="translate(1656.830283 463.158437) scale(0.1 -0.1)">
       <defs>
        <path id="DejaVuSans-34" d="M 2419 4116 
L 825 1625 
L 2419 1625 
L 2419 4116 
z
M 2253 4666 
L 3047 4666 
L 3047 1625 
L 3713 1625 
L 3713 1100 
L 3047 1100 
L 3047 0 
L 2419 0 
L 2419 1100 
L 313 1100 
L 313 1709 
L 2253 4666 
z
" transform="scale(0.015625)"/>
       </defs>
       <use xlink:href="#DejaVuSans-34"/>
       <use xlink:href="#DejaVuSans-30" transform="translate(63.623047 0)"/>
       <use xlink:href="#DejaVuSans-30" transform="translate(127.246094 0)"/>
       <use xlink:href="#DejaVuSans-30" transform="translate(190.869141 0)"/>
      </g>
     </g>
    </g>
    <g id="text_6">
     <!-- Duration (Nanoseconds) -->
     <g transform="translate(1046.323437 476.836563) scale(0.1 -0.1)">
      <defs>
       <path id="DejaVuSans-44" d="M 1259 4147 
L 1259 519 
L 2022 519 
Q 2988 519 3436 956 
Q 3884 1394 3884 2338 
Q 3884 3275 3436 3711 
Q 2988 4147 2022 4147 
L 1259 4147 
z
M 628 4666 
L 1925 4666 
Q 3281 4666 3915 4102 
Q 4550 3538 4550 2338 
Q 4550 1131 3912 565 
Q 3275 0 1925 0 
L 628 0 
L 628 4666 
z
" transform="scale(0.015625)"/>
       <path id="DejaVuSans-75" d="M 544 1381 
L 544 3500 
L 1119 3500 
L 1119 1403 
Q 1119 906 1312 657 
Q 1506 409 1894 409 
Q 2359 409 2629 706 
Q 2900 1003 2900 1516 
L 2900 3500 
L 3475 3500 
L 3475 0 
L 2900 0 
L 2900 538 
Q 2691 219 2414 64 
Q 2138 -91 1772 -91 
Q 1169 -91 856 284 
Q 544 659 544 1381 
z
M 1991 3584 
L 1991 3584 
z
" transform="scale(0.015625)"/>
       <path id="DejaVuSans-72" d="M 2631 2963 
Q 2534 3019 2420 3045 
Q 2306 3072 2169 3072 
Q 1681 3072 1420 2755 
Q 1159 2438 1159 1844 
L 1159 0 
L 581 0 
L 581 3500 
L 1159 3500 
L 1159 2956 
Q 1341 3275 1631 3429 
Q 1922 3584 2338 3584 
Q 2397 3584 2469 3576 
Q 2541 3569 2628 3553 
L 2631 2963 
z
" transform="scale(0.015625)"/>
       <path id="DejaVuSans-61" d="M 2194 1759 
Q 1497 1759 1228 1600 
Q 959 1441 959 1056 
Q 959 750 1161 570 
Q 1363 391 1709 391 
Q 2188 391 2477 730 
Q 2766 1069 2766 1631 
L 2766 1759 
L 2194 1759 
z
M 3341 1997 
L 3341 0 
L 2766 0 
L 2766 531 
Q 2569 213 2275 61 
Q 1981 -91 1556 -91 
Q 1019 -91 701 211 
Q 384 513 384 1019 
Q 384 1609 779 1909 
Q 1175 2209 1959 2209 
L 2766 2209 
L 2766 2266 
Q 2766 2663 2505 2880 
Q 2244 3097 1772 3097 
Q 1472 3097 1187 3025 
Q 903 2953 641 2809 
L 641 3341 
Q 956 3463 1253 3523 
Q 1550 3584 1831 3584 
Q 2591 3584 2966 3190 
Q 3341 2797 3341 1997 
z
" transform="scale(0.015625)"/>
       <path id="DejaVuSans-74" d="M 1172 4494 
L 1172 3500 
L 2356 3500 
L 2356 3053 
L 1172 3053 
L 1172 1153 
Q 1172 725 1289 603 
Q 1406 481 1766 481 
L 2356 481 
L 2356 0 
L 1766 0 
Q 1100 0 847 248 
Q 594 497 594 1153 
L 594 3053 
L 172 3053 
L 172 3500 
L 594 3500 
L 594 4494 
L 1172 4494 
z
" transform="scale(0.015625)"/>
       <path id="DejaVuSans-69" d="M 603 3500 
L 1178 3500 
L 1178 0 
L 603 0 
L 603 3500 
z
M 603 4863 
L 1178 4863 
L 1178 4134 
L 603 4134 
L 603 4863 
z
" transform="scale(0.015625)"/>
       <path id="DejaVuSans-6f" d="M 1959 3097 
Q 1497 3097 1228 2736 
Q 959 2375 959 1747 
Q 959 1119 1226 758 
Q 1494 397 1959 397 
Q 2419 397 2687 759 
Q 2956 1122 2956 1747 
Q 2956 2369 2687 2733 
Q 2419 3097 1959 3097 
z
M 1959 3584 
Q 2709 3584 3137 3096 
Q 3566 2609 3566 1747 
Q 3566 888 3137 398 
Q 2709 -91 1959 -91 
Q 1206 -91 779 398 
Q 353 888 353 1747 
Q 353 2609 779 3096 
Q 1206 3584 1959 3584 
z
" transform="scale(0.015625)"/>
       <path id="DejaVuSans-6e" d="M 3513 2113 
L 3513 0 
L 2938 0 
L 2938 2094 
Q 2938 2591 2744 2837 
Q 2550 3084 2163 3084 
Q 1697 3084 1428 2787 
Q 1159 2491 1159 1978 
L 1159 0 
L 581 0 
L 581 3500 
L 1159 3500 
L 1159 2956 
Q 1366 3272 1645 3428 
Q 1925 3584 2291 3584 
Q 2894 3584 3203 3211 
Q 3513 2838 3513 2113 
z
" transform="scale(0.015625)"/>
       <path id="DejaVuSans-20" transform="scale(0.015625)"/>
       <path id="DejaVuSans-28" d="M 1984 4856 
Q 1566 4138 1362 3434 
Q 1159 2731 1159 2009 
Q 1159 1288 1364 580 
Q 1569 -128 1984 -844 
L 1484 -844 
Q 1016 -109 783 600 
Q 550 1309 550 2009 
Q 550 2706 781 3412 
Q 1013 4119 1484 4856 
L 1984 4856 
z
" transform="scale(0.015625)"/>
       <path id="DejaVuSans-4e" d="M 628 4666 
L 1478 4666 
L 3547 763 
L 3547 4666 
L 4159 4666 
L 4159 0 
L 3309 0 
L 1241 3903 
L 1241 0 
L 628 0 
L 628 4666 
z
" transform="scale(0.015625)"/>
       <path id="DejaVuSans-73" d="M 2834 3397 
L 2834 2853 
Q 2591 2978 2328 3040 
Q 2066 3103 1784 3103 
Q 1356 3103 1142 2972 
Q 928 2841 928 2578 
Q 928 2378 1081 2264 
Q 1234 2150 1697 2047 
L 1894 2003 
Q 2506 1872 2764 1633 
Q 3022 1394 3022 966 
Q 3022 478 2636 193 
Q 2250 -91 1575 -91 
Q 1294 -91 989 -36 
Q 684 19 347 128 
L 347 722 
Q 666 556 975 473 
Q 1284 391 1588 391 
Q 1994 391 2212 530 
Q 2431 669 2431 922 
Q 2431 1156 2273 1281 
Q 2116 1406 1581 1522 
L 1381 1569 
Q 847 1681 609 1914 
Q 372 2147 372 2553 
Q 372 3047 722 3315 
Q 1072 3584 1716 3584 
Q 2034 3584 2315 3537 
Q 2597 3491 2834 3397 
z
" transform="scale(0.015625)"/>
       <path id="DejaVuSans-65" d="M 3597 1894 
L 3597 1613 
L 953 1613 
Q 991 1019 1311 708 
Q 1631 397 2203 397 
Q 2534 397 2845 478 
Q 3156 559 3463 722 
L 3463 178 
Q 3153 47 2828 -22 
Q 2503 -91 2169 -91 
Q 1331 -91 842 396 
Q 353 884 353 1716 
Q 353 2575 817 3079 
Q 1281 3584 2069 3584 
Q 2775 3584 3186 3129 
Q 3597 2675 3597 1894 
z
M 3022 2063 
Q 3016 2534 2758 2815 
Q 2500 3097 2075 3097 
Q 1594 3097 1305 2825 
Q 1016 2553 972 2059 
L 3022 2063 
z
" transform="scale(0.015625)"/>
       <path id="DejaVuSans-63" d="M 3122 3366 
L 3122 2828 
Q 2878 2963 2633 3030 
Q 2388 3097 2138 3097 
Q 1578 3097 1268 2742 
Q 959 2388 959 1747 
Q 959 1106 1268 751 
Q 1578 397 2138 397 
Q 2388 397 2633 464 
Q 2878 531 3122 666 
L 3122 134 
Q 2881 22 2623 -34 
Q 2366 -91 2075 -91 
Q 1284 -91 818 406 
Q 353 903 353 1747 
Q 353 2603 823 3093 
Q 1294 3584 2113 3584 
Q 2378 3584 2631 3529 
Q 2884 3475 3122 3366 
z
" transform="scale(0.015625)"/>
       <path id="DejaVuSans-64" d="M 2906 2969 
L 2906 4863 
L 3481 4863 
L 3481 0 
L 2906 0 
L 2906 525 
Q 2725 213 2448 61 
Q 2172 -91 1784 -91 
Q 1150 -91 751 415 
Q 353 922 353 1747 
Q 353 2572 751 3078 
Q 1150 3584 1784 3584 
Q 2172 3584 2448 3432 
Q 2725 3281 2906 2969 
z
M 947 1747 
Q 947 1113 1208 752 
Q 1469 391 1925 391 
Q 2381 391 2643 752 
Q 2906 1113 2906 1747 
Q 2906 2381 2643 2742 
Q 2381 3103 1925 3103 
Q 1469 3103 1208 2742 
Q 947 2381 947 1747 
z
" transform="scale(0.015625)"/>
       <path id="DejaVuSans-29" d="M 513 4856 
L 1013 4856 
Q 1481 4119 1714 3412 
Q 1947 2706 1947 2009 
Q 1947 1309 1714 600 
Q 1481 -109 1013 -844 
L 513 -844 
Q 928 -128 1133 580 
Q 1338 1288 1338 2009 
Q 1338 2731 1133 3434 
Q 928 4138 513 4856 
z
" transform="scale(0.015625)"/>
      </defs>
      <use xlink:href="#DejaVuSans-44"/>
      <use xlink:href="#DejaVuSans-75" transform="translate(77.001953 0)"/>
      <use xlink:href="#DejaVuSans-72" transform="translate(140.380859 0)"/>
      <use xlink:href="#DejaVuSans-61" transform="translate(181.494141 0)"/>
      <use xlink:href="#DejaVuSans-74" transform="translate(242.773438 0)"/>
      <use xlink:href="#DejaVuSans-69" transform="translate(281.982422 0)"/>
      <use xlink:href="#DejaVuSans-6f" transform="translate(309.765625 0)"/>
      <use xlink:href="#DejaVuSans-6e" transform="translate(370.947266 0)"/>
      <use xlink:href="#DejaVuSans-20" transform="translate(434.326172 0)"/>
      <use xlink:href="#DejaVuSans-28" transform="translate(466.113281 0)"/>
      <use xlink:href="#DejaVuSans-4e" transform="translate(505.126953 0)"/>
      <use xlink:href="#DejaVuSans-61" transform="translate(579.931641 0)"/>
      <use xlink:href="#DejaVuSans-6e" transform="translate(641.210938 0)"/>
      <use xlink:href="#DejaVuSans-6f" transform="translate(704.589844 0)"/>
      <use xlink:href="#DejaVuSans-73" transform="translate(765.771484 0)"/>
      <use xlink:href="#DejaVuSans-65" transform="translate(817.871094 0)"/>
      <use xlink:href="#DejaVuSans-63" transform="translate(879.394531 0)"/>
      <use xlink:href="#DejaVuSans-6f" transform="translate(934.375 0)"/>
      <use xlink:href="#DejaVuSans-6e" transform="translate(995.556641 0)"/>
      <use xlink:href="#DejaVuSans-64" transform="translate(1058.935547 0)"/>
      <use xlink:href="#DejaVuSans-73" transform="translate(1122.412109 0)"/>
      <use xlink:href="#DejaVuSans-29" transform="translate(1174.511719 0)"/>
     </g>
    </g>
   </g>
   <g id="matplotlib.axis_2">
    <g id="ytick_1">
     <g id="line2d_11">
      <path d="M 270 430.92 
L 1944 430.92 
" clip-path="url(#p47f374c2ae)" style="fill: none; stroke-dasharray: 2.96,1.28; stroke-dashoffset: 0; stroke: #b0b0b0; stroke-opacity: 0.6; stroke-width: 0.8"/>
     </g>
     <g id="line2d_12">
      <defs>
       <path id="m457e0d90a5" d="M 0 0 
L -3.5 0 
" style="stroke: #000000; stroke-width: 0.8"/>
      </defs>
      <g>
       <use xlink:href="#m457e0d90a5" x="270" y="430.92" style="stroke: #000000; stroke-width: 0.8"/>
      </g>
     </g>
     <g id="text_7">
      <!-- $\mathdefault{10^{0}}$ -->
      <g transform="translate(245.4 434.719219) scale(0.1 -0.1)">
       <use xlink:href="#DejaVuSans-31" transform="translate(0 0.765625)"/>
       <use xlink:href="#DejaVuSans-30" transform="translate(63.623047 0.765625)"/>
       <use xlink:href="#DejaVuSans-30" transform="translate(128.203125 39.046875) scale(0.7)"/>
      </g>
     </g>
    </g>
    <g id="ytick_2">
     <g id="line2d_13">
      <path d="M 270 363.801393 
L 1944 363.801393 
" clip-path="url(#p47f374c2ae)" style="fill: none; stroke-dasharray: 2.96,1.28; stroke-dashoffset: 0; stroke: #b0b0b0; stroke-opacity: 0.6; stroke-width: 0.8"/>
     </g>
     <g id="line2d_14">
      <g>
       <use xlink:href="#m457e0d90a5" x="270" y="363.801393" style="stroke: #000000; stroke-width: 0.8"/>
      </g>
     </g>
     <g id="text_8">
      <!-- $\mathdefault{10^{1}}$ -->
      <g transform="translate(245.4 367.600611) scale(0.1 -0.1)">
       <use xlink:href="#DejaVuSans-31" transform="translate(0 0.684375)"/>
       <use xlink:href="#DejaVuSans-30" transform="translate(63.623047 0.684375)"/>
       <use xlink:href="#DejaVuSans-31" transform="translate(128.203125 38.965625) scale(0.7)"/>
      </g>
     </g>
    </g>
    <g id="ytick_3">
     <g id="line2d_15">
      <path d="M 270 296.682785 
L 1944 296.682785 
" clip-path="url(#p47f374c2ae)" style="fill: none; stroke-dasharray: 2.96,1.28; stroke-dashoffset: 0; stroke: #b0b0b0; stroke-opacity: 0.6; stroke-width: 0.8"/>
     </g>
     <g id="line2d_16">
      <g>
       <use xlink:href="#m457e0d90a5" x="270" y="296.682785" style="stroke: #000000; stroke-width: 0.8"/>
      </g>
     </g>
     <g id="text_9">
      <!-- $\mathdefault{10^{2}}$ -->
      <g transform="translate(245.4 300.482004) scale(0.1 -0.1)">
       <use xlink:href="#DejaVuSans-31" transform="translate(0 0.765625)"/>
       <use xlink:href="#DejaVuSans-30" transform="translate(63.623047 0.765625)"/>
       <use xlink:href="#DejaVuSans-32" transform="translate(128.203125 39.046875) scale(0.7)"/>
      </g>
     </g>
    </g>
    <g id="ytick_4">
     <g id="line2d_17">
      <path d="M 270 229.564178 
L 1944 229.564178 
" clip-path="url(#p47f374c2ae)" style="fill: none; stroke-dasharray: 2.96,1.28; stroke-dashoffset: 0; stroke: #b0b0b0; stroke-opacity: 0.6; stroke-width: 0.8"/>
     </g>
     <g id="line2d_18">
      <g>
       <use xlink:href="#m457e0d90a5" x="270" y="229.564178" style="stroke: #000000; stroke-width: 0.8"/>
      </g>
     </g>
     <g id="text_10">
      <!-- $\mathdefault{10^{3}}$ -->
      <g transform="translate(245.4 233.363397) scale(0.1 -0.1)">
       <use xlink:href="#DejaVuSans-31" transform="translate(0 0.765625)"/>
       <use xlink:href="#DejaVuSans-30" transform="translate(63.623047 0.765625)"/>
       <use xlink:href="#DejaVuSans-33" transform="translate(128.203125 39.046875) scale(0.7)"/>
      </g>
     </g>
    </g>
    <g id="ytick_5">
     <g id="line2d_19">
      <path d="M 270 162.445571 
L 1944 162.445571 
" clip-path="url(#p47f374c2ae)" style="fill: none; stroke-dasharray: 2.96,1.28; stroke-dashoffset: 0; stroke: #b0b0b0; stroke-opacity: 0.6; stroke-width: 0.8"/>
     </g>
     <g id="line2d_20">
      <g>
       <use xlink:href="#m457e0d90a5" x="270" y="162.445571" style="stroke: #000000; stroke-width: 0.8"/>
      </g>
     </g>
     <g id="text_11">
      <!-- $\mathdefault{10^{4}}$ -->
      <g transform="translate(245.4 166.244789) scale(0.1 -0.1)">
       <use xlink:href="#DejaVuSans-31" transform="translate(0 0.684375)"/>
       <use xlink:href="#DejaVuSans-30" transform="translate(63.623047 0.684375)"/>
       <use xlink:href="#DejaVuSans-34" transform="translate(128.203125 38.965625) scale(0.7)"/>
      </g>
     </g>
    </g>
    <g id="ytick_6">
     <g id="line2d_21">
      <path d="M 270 95.326963 
L 1944 95.326963 
" clip-path="url(#p47f374c2ae)" style="fill: none; stroke-dasharray: 2.96,1.28; stroke-dashoffset: 0; stroke: #b0b0b0; stroke-opacity: 0.6; stroke-width: 0.8"/>
     </g>
     <g id="line2d_22">
      <g>
       <use xlink:href="#m457e0d90a5" x="270" y="95.326963" style="stroke: #000000; stroke-width: 0.8"/>
      </g>
     </g>
     <g id="text_12">
      <!-- $\mathdefault{10^{5}}$ -->
      <g transform="translate(245.4 99.126182) scale(0.1 -0.1)">
       <defs>
        <path id="DejaVuSans-35" d="M 691 4666 
L 3169 4666 
L 3169 4134 
L 1269 4134 
L 1269 2991 
Q 1406 3038 1543 3061 
Q 1681 3084 1819 3084 
Q 2600 3084 3056 2656 
Q 3513 2228 3513 1497 
Q 3513 744 3044 326 
Q 2575 -91 1722 -91 
Q 1428 -91 1123 -41 
Q 819 9 494 109 
L 494 744 
Q 775 591 1075 516 
Q 1375 441 1709 441 
Q 2250 441 2565 725 
Q 2881 1009 2881 1497 
Q 2881 1984 2565 2268 
Q 2250 2553 1709 2553 
Q 1456 2553 1204 2497 
Q 953 2441 691 2322 
L 691 4666 
z
" transform="scale(0.015625)"/>
       </defs>
       <use xlink:href="#DejaVuSans-31" transform="translate(0 0.684375)"/>
       <use xlink:href="#DejaVuSans-30" transform="translate(63.623047 0.684375)"/>
       <use xlink:href="#DejaVuSans-35" transform="translate(128.203125 38.965625) scale(0.7)"/>
      </g>
     </g>
    </g>
    <g id="ytick_7">
     <g id="line2d_23">
      <defs>
       <path id="mae017ba75b" d="M 0 0 
L -2 0 
" style="stroke: #000000; stroke-width: 0.6"/>
      </defs>
      <g>
       <use xlink:href="#mae017ba75b" x="270" y="445.810179" style="stroke: #000000; stroke-width: 0.6"/>
      </g>
     </g>
    </g>
    <g id="ytick_8">
     <g id="line2d_24">
      <g>
       <use xlink:href="#mae017ba75b" x="270" y="441.316804" style="stroke: #000000; stroke-width: 0.6"/>
      </g>
     </g>
    </g>
    <g id="ytick_9">
     <g id="line2d_25">
      <g>
       <use xlink:href="#mae017ba75b" x="270" y="437.424465" style="stroke: #000000; stroke-width: 0.6"/>
      </g>
     </g>
    </g>
    <g id="ytick_10">
     <g id="line2d_26">
      <g>
       <use xlink:href="#mae017ba75b" x="270" y="433.991179" style="stroke: #000000; stroke-width: 0.6"/>
      </g>
     </g>
    </g>
    <g id="ytick_11">
     <g id="line2d_27">
      <g>
       <use xlink:href="#mae017ba75b" x="270" y="410.715286" style="stroke: #000000; stroke-width: 0.6"/>
      </g>
     </g>
    </g>
    <g id="ytick_12">
     <g id="line2d_28">
      <g>
       <use xlink:href="#mae017ba75b" x="270" y="398.896286" style="stroke: #000000; stroke-width: 0.6"/>
      </g>
     </g>
    </g>
    <g id="ytick_13">
     <g id="line2d_29">
      <g>
       <use xlink:href="#mae017ba75b" x="270" y="390.510572" style="stroke: #000000; stroke-width: 0.6"/>
      </g>
     </g>
    </g>
    <g id="ytick_14">
     <g id="line2d_30">
      <g>
       <use xlink:href="#mae017ba75b" x="270" y="384.006107" style="stroke: #000000; stroke-width: 0.6"/>
      </g>
     </g>
    </g>
    <g id="ytick_15">
     <g id="line2d_31">
      <g>
       <use xlink:href="#mae017ba75b" x="270" y="378.691572" style="stroke: #000000; stroke-width: 0.6"/>
      </g>
     </g>
    </g>
    <g id="ytick_16">
     <g id="line2d_32">
      <g>
       <use xlink:href="#mae017ba75b" x="270" y="374.198196" style="stroke: #000000; stroke-width: 0.6"/>
      </g>
     </g>
    </g>
    <g id="ytick_17">
     <g id="line2d_33">
      <g>
       <use xlink:href="#mae017ba75b" x="270" y="370.305858" style="stroke: #000000; stroke-width: 0.6"/>
      </g>
     </g>
    </g>
    <g id="ytick_18">
     <g id="line2d_34">
      <g>
       <use xlink:href="#mae017ba75b" x="270" y="366.872572" style="stroke: #000000; stroke-width: 0.6"/>
      </g>
     </g>
    </g>
    <g id="ytick_19">
     <g id="line2d_35">
      <g>
       <use xlink:href="#mae017ba75b" x="270" y="343.596679" style="stroke: #000000; stroke-width: 0.6"/>
      </g>
     </g>
    </g>
    <g id="ytick_20">
     <g id="line2d_36">
      <g>
       <use xlink:href="#mae017ba75b" x="270" y="331.777679" style="stroke: #000000; stroke-width: 0.6"/>
      </g>
     </g>
    </g>
    <g id="ytick_21">
     <g id="line2d_37">
      <g>
       <use xlink:href="#mae017ba75b" x="270" y="323.391965" style="stroke: #000000; stroke-width: 0.6"/>
      </g>
     </g>
    </g>
    <g id="ytick_22">
     <g id="line2d_38">
      <g>
       <use xlink:href="#mae017ba75b" x="270" y="316.887499" style="stroke: #000000; stroke-width: 0.6"/>
      </g>
     </g>
    </g>
    <g id="ytick_23">
     <g id="line2d_39">
      <g>
       <use xlink:href="#mae017ba75b" x="270" y="311.572964" style="stroke: #000000; stroke-width: 0.6"/>
      </g>
     </g>
    </g>
    <g id="ytick_24">
     <g id="line2d_40">
      <g>
       <use xlink:href="#mae017ba75b" x="270" y="307.079589" style="stroke: #000000; stroke-width: 0.6"/>
      </g>
     </g>
    </g>
    <g id="ytick_25">
     <g id="line2d_41">
      <g>
       <use xlink:href="#mae017ba75b" x="270" y="303.18725" style="stroke: #000000; stroke-width: 0.6"/>
      </g>
     </g>
    </g>
    <g id="ytick_26">
     <g id="line2d_42">
      <g>
       <use xlink:href="#mae017ba75b" x="270" y="299.753964" style="stroke: #000000; stroke-width: 0.6"/>
      </g>
     </g>
    </g>
    <g id="ytick_27">
     <g id="line2d_43">
      <g>
       <use xlink:href="#mae017ba75b" x="270" y="276.478071" style="stroke: #000000; stroke-width: 0.6"/>
      </g>
     </g>
    </g>
    <g id="ytick_28">
     <g id="line2d_44">
      <g>
       <use xlink:href="#mae017ba75b" x="270" y="264.659071" style="stroke: #000000; stroke-width: 0.6"/>
      </g>
     </g>
    </g>
    <g id="ytick_29">
     <g id="line2d_45">
      <g>
       <use xlink:href="#mae017ba75b" x="270" y="256.273357" style="stroke: #000000; stroke-width: 0.6"/>
      </g>
     </g>
    </g>
    <g id="ytick_30">
     <g id="line2d_46">
      <g>
       <use xlink:href="#mae017ba75b" x="270" y="249.768892" style="stroke: #000000; stroke-width: 0.6"/>
      </g>
     </g>
    </g>
    <g id="ytick_31">
     <g id="line2d_47">
      <g>
       <use xlink:href="#mae017ba75b" x="270" y="244.454357" style="stroke: #000000; stroke-width: 0.6"/>
      </g>
     </g>
    </g>
    <g id="ytick_32">
     <g id="line2d_48">
      <g>
       <use xlink:href="#mae017ba75b" x="270" y="239.960982" style="stroke: #000000; stroke-width: 0.6"/>
      </g>
     </g>
    </g>
    <g id="ytick_33">
     <g id="line2d_49">
      <g>
       <use xlink:href="#mae017ba75b" x="270" y="236.068643" style="stroke: #000000; stroke-width: 0.6"/>
      </g>
     </g>
    </g>
    <g id="ytick_34">
     <g id="line2d_50">
      <g>
       <use xlink:href="#mae017ba75b" x="270" y="232.635357" style="stroke: #000000; stroke-width: 0.6"/>
      </g>
     </g>
    </g>
    <g id="ytick_35">
     <g id="line2d_51">
      <g>
       <use xlink:href="#mae017ba75b" x="270" y="209.359464" style="stroke: #000000; stroke-width: 0.6"/>
      </g>
     </g>
    </g>
    <g id="ytick_36">
     <g id="line2d_52">
      <g>
       <use xlink:href="#mae017ba75b" x="270" y="197.540464" style="stroke: #000000; stroke-width: 0.6"/>
      </g>
     </g>
    </g>
    <g id="ytick_37">
     <g id="line2d_53">
      <g>
       <use xlink:href="#mae017ba75b" x="270" y="189.15475" style="stroke: #000000; stroke-width: 0.6"/>
      </g>
     </g>
    </g>
    <g id="ytick_38">
     <g id="line2d_54">
      <g>
       <use xlink:href="#mae017ba75b" x="270" y="182.650285" style="stroke: #000000; stroke-width: 0.6"/>
      </g>
     </g>
    </g>
    <g id="ytick_39">
     <g id="line2d_55">
      <g>
       <use xlink:href="#mae017ba75b" x="270" y="177.33575" style="stroke: #000000; stroke-width: 0.6"/>
      </g>
     </g>
    </g>
    <g id="ytick_40">
     <g id="line2d_56">
      <g>
       <use xlink:href="#mae017ba75b" x="270" y="172.842374" style="stroke: #000000; stroke-width: 0.6"/>
      </g>
     </g>
    </g>
    <g id="ytick_41">
     <g id="line2d_57">
      <g>
       <use xlink:href="#mae017ba75b" x="270" y="168.950036" style="stroke: #000000; stroke-width: 0.6"/>
      </g>
     </g>
    </g>
    <g id="ytick_42">
     <g id="line2d_58">
      <g>
       <use xlink:href="#mae017ba75b" x="270" y="165.51675" style="stroke: #000000; stroke-width: 0.6"/>
      </g>
     </g>
    </g>
    <g id="ytick_43">
     <g id="line2d_59">
      <g>
       <use xlink:href="#mae017ba75b" x="270" y="142.240857" style="stroke: #000000; stroke-width: 0.6"/>
      </g>
     </g>
    </g>
    <g id="ytick_44">
     <g id="line2d_60">
      <g>
       <use xlink:href="#mae017ba75b" x="270" y="130.421857" style="stroke: #000000; stroke-width: 0.6"/>
      </g>
     </g>
    </g>
    <g id="ytick_45">
     <g id="line2d_61">
      <g>
       <use xlink:href="#mae017ba75b" x="270" y="122.036143" style="stroke: #000000; stroke-width: 0.6"/>
      </g>
     </g>
    </g>
    <g id="ytick_46">
     <g id="line2d_62">
      <g>
       <use xlink:href="#mae017ba75b" x="270" y="115.531677" style="stroke: #000000; stroke-width: 0.6"/>
      </g>
     </g>
    </g>
    <g id="ytick_47">
     <g id="line2d_63">
      <g>
       <use xlink:href="#mae017ba75b" x="270" y="110.217142" style="stroke: #000000; stroke-width: 0.6"/>
      </g>
     </g>
    </g>
    <g id="ytick_48">
     <g id="line2d_64">
      <g>
       <use xlink:href="#mae017ba75b" x="270" y="105.723767" style="stroke: #000000; stroke-width: 0.6"/>
      </g>
     </g>
    </g>
    <g id="ytick_49">
     <g id="line2d_65">
      <g>
       <use xlink:href="#mae017ba75b" x="270" y="101.831428" style="stroke: #000000; stroke-width: 0.6"/>
      </g>
     </g>
    </g>
    <g id="ytick_50">
     <g id="line2d_66">
      <g>
       <use xlink:href="#mae017ba75b" x="270" y="98.398142" style="stroke: #000000; stroke-width: 0.6"/>
      </g>
     </g>
    </g>
    <g id="ytick_51">
     <g id="line2d_67">
      <g>
       <use xlink:href="#mae017ba75b" x="270" y="75.122249" style="stroke: #000000; stroke-width: 0.6"/>
      </g>
     </g>
    </g>
    <g id="ytick_52">
     <g id="line2d_68">
      <g>
       <use xlink:href="#mae017ba75b" x="270" y="63.303249" style="stroke: #000000; stroke-width: 0.6"/>
      </g>
     </g>
    </g>
    <g id="text_13">
     <!-- Count (Log Scale) -->
     <g transform="translate(239.320312 298.833281) rotate(-90) scale(0.1 -0.1)">
      <defs>
       <path id="DejaVuSans-43" d="M 4122 4306 
L 4122 3641 
Q 3803 3938 3442 4084 
Q 3081 4231 2675 4231 
Q 1875 4231 1450 3742 
Q 1025 3253 1025 2328 
Q 1025 1406 1450 917 
Q 1875 428 2675 428 
Q 3081 428 3442 575 
Q 3803 722 4122 1019 
L 4122 359 
Q 3791 134 3420 21 
Q 3050 -91 2638 -91 
Q 1578 -91 968 557 
Q 359 1206 359 2328 
Q 359 3453 968 4101 
Q 1578 4750 2638 4750 
Q 3056 4750 3426 4639 
Q 3797 4528 4122 4306 
z
" transform="scale(0.015625)"/>
       <path id="DejaVuSans-4c" d="M 628 4666 
L 1259 4666 
L 1259 531 
L 3531 531 
L 3531 0 
L 628 0 
L 628 4666 
z
" transform="scale(0.015625)"/>
       <path id="DejaVuSans-67" d="M 2906 1791 
Q 2906 2416 2648 2759 
Q 2391 3103 1925 3103 
Q 1463 3103 1205 2759 
Q 947 2416 947 1791 
Q 947 1169 1205 825 
Q 1463 481 1925 481 
Q 2391 481 2648 825 
Q 2906 1169 2906 1791 
z
M 3481 434 
Q 3481 -459 3084 -895 
Q 2688 -1331 1869 -1331 
Q 1566 -1331 1297 -1286 
Q 1028 -1241 775 -1147 
L 775 -588 
Q 1028 -725 1275 -790 
Q 1522 -856 1778 -856 
Q 2344 -856 2625 -561 
Q 2906 -266 2906 331 
L 2906 616 
Q 2728 306 2450 153 
Q 2172 0 1784 0 
Q 1141 0 747 490 
Q 353 981 353 1791 
Q 353 2603 747 3093 
Q 1141 3584 1784 3584 
Q 2172 3584 2450 3431 
Q 2728 3278 2906 2969 
L 2906 3500 
L 3481 3500 
L 3481 434 
z
" transform="scale(0.015625)"/>
       <path id="DejaVuSans-53" d="M 3425 4513 
L 3425 3897 
Q 3066 4069 2747 4153 
Q 2428 4238 2131 4238 
Q 1616 4238 1336 4038 
Q 1056 3838 1056 3469 
Q 1056 3159 1242 3001 
Q 1428 2844 1947 2747 
L 2328 2669 
Q 3034 2534 3370 2195 
Q 3706 1856 3706 1288 
Q 3706 609 3251 259 
Q 2797 -91 1919 -91 
Q 1588 -91 1214 -16 
Q 841 59 441 206 
L 441 856 
Q 825 641 1194 531 
Q 1563 422 1919 422 
Q 2459 422 2753 634 
Q 3047 847 3047 1241 
Q 3047 1584 2836 1778 
Q 2625 1972 2144 2069 
L 1759 2144 
Q 1053 2284 737 2584 
Q 422 2884 422 3419 
Q 422 4038 858 4394 
Q 1294 4750 2059 4750 
Q 2388 4750 2728 4690 
Q 3069 4631 3425 4513 
z
" transform="scale(0.015625)"/>
       <path id="DejaVuSans-6c" d="M 603 4863 
L 1178 4863 
L 1178 0 
L 603 0 
L 603 4863 
z
" transform="scale(0.015625)"/>
      </defs>
      <use xlink:href="#DejaVuSans-43"/>
      <use xlink:href="#DejaVuSans-6f" transform="translate(69.824219 0)"/>
      <use xlink:href="#DejaVuSans-75" transform="translate(131.005859 0)"/>
      <use xlink:href="#DejaVuSans-6e" transform="translate(194.384766 0)"/>
      <use xlink:href="#DejaVuSans-74" transform="translate(257.763672 0)"/>
      <use xlink:href="#DejaVuSans-20" transform="translate(296.972656 0)"/>
      <use xlink:href="#DejaVuSans-28" transform="translate(328.759766 0)"/>
      <use xlink:href="#DejaVuSans-4c" transform="translate(367.773438 0)"/>
      <use xlink:href="#DejaVuSans-6f" transform="translate(421.736328 0)"/>
      <use xlink:href="#DejaVuSans-67" transform="translate(482.917969 0)"/>
      <use xlink:href="#DejaVuSans-20" transform="translate(546.394531 0)"/>
      <use xlink:href="#DejaVuSans-53" transform="translate(578.181641 0)"/>
      <use xlink:href="#DejaVuSans-63" transform="translate(641.658203 0)"/>
      <use xlink:href="#DejaVuSans-61" transform="translate(696.638672 0)"/>
      <use xlink:href="#DejaVuSans-6c" transform="translate(757.917969 0)"/>
      <use xlink:href="#DejaVuSans-65" transform="translate(785.701172 0)"/>
      <use xlink:href="#DejaVuSans-29" transform="translate(847.224609 0)"/>
     </g>
    </g>
   </g>
   <g id="patch_156">
    <path d="M 270 448.56 
L 270 60.48 
" style="fill: none; stroke: #000000; stroke-width: 0.8; stroke-linejoin: miter; stroke-linecap: square"/>
   </g>
   <g id="patch_157">
    <path d="M 1944 448.56 
L 1944 60.48 
" style="fill: none; stroke: #000000; stroke-width: 0.8; stroke-linejoin: miter; stroke-linecap: square"/>
   </g>
   <g id="patch_158">
    <path d="M 270 448.56 
L 1944 448.56 
" style="fill: none; stroke: #000000; stroke-width: 0.8; stroke-linejoin: miter; stroke-linecap: square"/>
   </g>
   <g id="patch_159">
    <path d="M 270 60.48 
L 1944 60.48 
" style="fill: none; stroke: #000000; stroke-width: 0.8; stroke-linejoin: miter; stroke-linecap: square"/>
   </g>
   <g id="text_14">
    <!-- Distribution of Duration Measurements for HighVolatility.dbnCustomAllocationMapOrderBook -->
    <g transform="translate(828.67125 54.48) scale(0.12 -0.12)">
     <defs>
      <path id="DejaVuSans-62" d="M 3116 1747 
Q 3116 2381 2855 2742 
Q 2594 3103 2138 3103 
Q 1681 3103 1420 2742 
Q 1159 2381 1159 1747 
Q 1159 1113 1420 752 
Q 1681 391 2138 391 
Q 2594 391 2855 752 
Q 3116 1113 3116 1747 
z
M 1159 2969 
Q 1341 3281 1617 3432 
Q 1894 3584 2278 3584 
Q 2916 3584 3314 3078 
Q 3713 2572 3713 1747 
Q 3713 922 3314 415 
Q 2916 -91 2278 -91 
Q 1894 -91 1617 61 
Q 1341 213 1159 525 
L 1159 0 
L 581 0 
L 581 4863 
L 1159 4863 
L 1159 2969 
z
" transform="scale(0.015625)"/>
      <path id="DejaVuSans-66" d="M 2375 4863 
L 2375 4384 
L 1825 4384 
Q 1516 4384 1395 4259 
Q 1275 4134 1275 3809 
L 1275 3500 
L 2222 3500 
L 2222 3053 
L 1275 3053 
L 1275 0 
L 697 0 
L 697 3053 
L 147 3053 
L 147 3500 
L 697 3500 
L 697 3744 
Q 697 4328 969 4595 
Q 1241 4863 1831 4863 
L 2375 4863 
z
" transform="scale(0.015625)"/>
      <path id="DejaVuSans-4d" d="M 628 4666 
L 1569 4666 
L 2759 1491 
L 3956 4666 
L 4897 4666 
L 4897 0 
L 4281 0 
L 4281 4097 
L 3078 897 
L 2444 897 
L 1241 4097 
L 1241 0 
L 628 0 
L 628 4666 
z
" transform="scale(0.015625)"/>
      <path id="DejaVuSans-6d" d="M 3328 2828 
Q 3544 3216 3844 3400 
Q 4144 3584 4550 3584 
Q 5097 3584 5394 3201 
Q 5691 2819 5691 2113 
L 5691 0 
L 5113 0 
L 5113 2094 
Q 5113 2597 4934 2840 
Q 4756 3084 4391 3084 
Q 3944 3084 3684 2787 
Q 3425 2491 3425 1978 
L 3425 0 
L 2847 0 
L 2847 2094 
Q 2847 2600 2669 2842 
Q 2491 3084 2119 3084 
Q 1678 3084 1418 2786 
Q 1159 2488 1159 1978 
L 1159 0 
L 581 0 
L 581 3500 
L 1159 3500 
L 1159 2956 
Q 1356 3278 1631 3431 
Q 1906 3584 2284 3584 
Q 2666 3584 2933 3390 
Q 3200 3197 3328 2828 
z
" transform="scale(0.015625)"/>
      <path id="DejaVuSans-48" d="M 628 4666 
L 1259 4666 
L 1259 2753 
L 3553 2753 
L 3553 4666 
L 4184 4666 
L 4184 0 
L 3553 0 
L 3553 2222 
L 1259 2222 
L 1259 0 
L 628 0 
L 628 4666 
z
" transform="scale(0.015625)"/>
      <path id="DejaVuSans-68" d="M 3513 2113 
L 3513 0 
L 2938 0 
L 2938 2094 
Q 2938 2591 2744 2837 
Q 2550 3084 2163 3084 
Q 1697 3084 1428 2787 
Q 1159 2491 1159 1978 
L 1159 0 
L 581 0 
L 581 4863 
L 1159 4863 
L 1159 2956 
Q 1366 3272 1645 3428 
Q 1925 3584 2291 3584 
Q 2894 3584 3203 3211 
Q 3513 2838 3513 2113 
z
" transform="scale(0.015625)"/>
      <path id="DejaVuSans-56" d="M 1831 0 
L 50 4666 
L 709 4666 
L 2188 738 
L 3669 4666 
L 4325 4666 
L 2547 0 
L 1831 0 
z
" transform="scale(0.015625)"/>
      <path id="DejaVuSans-79" d="M 2059 -325 
Q 1816 -950 1584 -1140 
Q 1353 -1331 966 -1331 
L 506 -1331 
L 506 -850 
L 844 -850 
Q 1081 -850 1212 -737 
Q 1344 -625 1503 -206 
L 1606 56 
L 191 3500 
L 800 3500 
L 1894 763 
L 2988 3500 
L 3597 3500 
L 2059 -325 
z
" transform="scale(0.015625)"/>
      <path id="DejaVuSans-2e" d="M 684 794 
L 1344 794 
L 1344 0 
L 684 0 
L 684 794 
z
" transform="scale(0.015625)"/>
      <path id="DejaVuSans-41" d="M 2188 4044 
L 1331 1722 
L 3047 1722 
L 2188 4044 
z
M 1831 4666 
L 2547 4666 
L 4325 0 
L 3669 0 
L 3244 1197 
L 1141 1197 
L 716 0 
L 50 0 
L 1831 4666 
z
" transform="scale(0.015625)"/>
      <path id="DejaVuSans-70" d="M 1159 525 
L 1159 -1331 
L 581 -1331 
L 581 3500 
L 1159 3500 
L 1159 2969 
Q 1341 3281 1617 3432 
Q 1894 3584 2278 3584 
Q 2916 3584 3314 3078 
Q 3713 2572 3713 1747 
Q 3713 922 3314 415 
Q 2916 -91 2278 -91 
Q 1894 -91 1617 61 
Q 1341 213 1159 525 
z
M 3116 1747 
Q 3116 2381 2855 2742 
Q 2594 3103 2138 3103 
Q 1681 3103 1420 2742 
Q 1159 2381 1159 1747 
Q 1159 1113 1420 752 
Q 1681 391 2138 391 
Q 2594 391 2855 752 
Q 3116 1113 3116 1747 
z
" transform="scale(0.015625)"/>
      <path id="DejaVuSans-4f" d="M 2522 4238 
Q 1834 4238 1429 3725 
Q 1025 3213 1025 2328 
Q 1025 1447 1429 934 
Q 1834 422 2522 422 
Q 3209 422 3611 934 
Q 4013 1447 4013 2328 
Q 4013 3213 3611 3725 
Q 3209 4238 2522 4238 
z
M 2522 4750 
Q 3503 4750 4090 4092 
Q 4678 3434 4678 2328 
Q 4678 1225 4090 567 
Q 3503 -91 2522 -91 
Q 1538 -91 948 565 
Q 359 1222 359 2328 
Q 359 3434 948 4092 
Q 1538 4750 2522 4750 
z
" transform="scale(0.015625)"/>
      <path id="DejaVuSans-42" d="M 1259 2228 
L 1259 519 
L 2272 519 
Q 2781 519 3026 730 
Q 3272 941 3272 1375 
Q 3272 1813 3026 2020 
Q 2781 2228 2272 2228 
L 1259 2228 
z
M 1259 4147 
L 1259 2741 
L 2194 2741 
Q 2656 2741 2882 2914 
Q 3109 3088 3109 3444 
Q 3109 3797 2882 3972 
Q 2656 4147 2194 4147 
L 1259 4147 
z
M 628 4666 
L 2241 4666 
Q 2963 4666 3353 4366 
Q 3744 4066 3744 3513 
Q 3744 3084 3544 2831 
Q 3344 2578 2956 2516 
Q 3422 2416 3680 2098 
Q 3938 1781 3938 1306 
Q 3938 681 3513 340 
Q 3088 0 2303 0 
L 628 0 
L 628 4666 
z
" transform="scale(0.015625)"/>
      <path id="DejaVuSans-6b" d="M 581 4863 
L 1159 4863 
L 1159 1991 
L 2875 3500 
L 3609 3500 
L 1753 1863 
L 3688 0 
L 2938 0 
L 1159 1709 
L 1159 0 
L 581 0 
L 581 4863 
z
" transform="scale(0.015625)"/>
     </defs>
     <use xlink:href="#DejaVuSans-44"/>
     <use xlink:href="#DejaVuSans-69" transform="translate(77.001953 0)"/>
     <use xlink:href="#DejaVuSans-73" transform="translate(104.785156 0)"/>
     <use xlink:href="#DejaVuSans-74" transform="translate(156.884766 0)"/>
     <use xlink:href="#DejaVuSans-72" transform="translate(196.09375 0)"/>
     <use xlink:href="#DejaVuSans-69" transform="translate(237.207031 0)"/>
     <use xlink:href="#DejaVuSans-62" transform="translate(264.990234 0)"/>
     <use xlink:href="#DejaVuSans-75" transform="translate(328.466797 0)"/>
     <use xlink:href="#DejaVuSans-74" transform="translate(391.845703 0)"/>
     <use xlink:href="#DejaVuSans-69" transform="translate(431.054688 0)"/>
     <use xlink:href="#DejaVuSans-6f" transform="translate(458.837891 0)"/>
     <use xlink:href="#DejaVuSans-6e" transform="translate(520.019531 0)"/>
     <use xlink:href="#DejaVuSans-20" transform="translate(583.398438 0)"/>
     <use xlink:href="#DejaVuSans-6f" transform="translate(615.185547 0)"/>
     <use xlink:href="#DejaVuSans-66" transform="translate(676.367188 0)"/>
     <use xlink:href="#DejaVuSans-20" transform="translate(711.572266 0)"/>
     <use xlink:href="#DejaVuSans-44" transform="translate(743.359375 0)"/>
     <use xlink:href="#DejaVuSans-75" transform="translate(820.361328 0)"/>
     <use xlink:href="#DejaVuSans-72" transform="translate(883.740234 0)"/>
     <use xlink:href="#DejaVuSans-61" transform="translate(924.853516 0)"/>
     <use xlink:href="#DejaVuSans-74" transform="translate(986.132812 0)"/>
     <use xlink:href="#DejaVuSans-69" transform="translate(1025.341797 0)"/>
     <use xlink:href="#DejaVuSans-6f" transform="translate(1053.125 0)"/>
     <use xlink:href="#DejaVuSans-6e" transform="translate(1114.306641 0)"/>
     <use xlink:href="#DejaVuSans-20" transform="translate(1177.685547 0)"/>
     <use xlink:href="#DejaVuSans-4d" transform="translate(1209.472656 0)"/>
     <use xlink:href="#DejaVuSans-65" transform="translate(1295.751953 0)"/>
     <use xlink:href="#DejaVuSans-61" transform="translate(1357.275391 0)"/>
     <use xlink:href="#DejaVuSans-73" transform="translate(1418.554688 0)"/>
     <use xlink:href="#DejaVuSans-75" transform="translate(1470.654297 0)"/>
     <use xlink:href="#DejaVuSans-72" transform="translate(1534.033203 0)"/>
     <use xlink:href="#DejaVuSans-65" transform="translate(1572.896484 0)"/>
     <use xlink:href="#DejaVuSans-6d" transform="translate(1634.419922 0)"/>
     <use xlink:href="#DejaVuSans-65" transform="translate(1731.832031 0)"/>
     <use xlink:href="#DejaVuSans-6e" transform="translate(1793.355469 0)"/>
     <use xlink:href="#DejaVuSans-74" transform="translate(1856.734375 0)"/>
     <use xlink:href="#DejaVuSans-73" transform="translate(1895.943359 0)"/>
     <use xlink:href="#DejaVuSans-20" transform="translate(1948.042969 0)"/>
     <use xlink:href="#DejaVuSans-66" transform="translate(1979.830078 0)"/>
     <use xlink:href="#DejaVuSans-6f" transform="translate(2015.035156 0)"/>
     <use xlink:href="#DejaVuSans-72" transform="translate(2076.216797 0)"/>
     <use xlink:href="#DejaVuSans-20" transform="translate(2117.330078 0)"/>
     <use xlink:href="#DejaVuSans-48" transform="translate(2149.117188 0)"/>
     <use xlink:href="#DejaVuSans-69" transform="translate(2224.3125 0)"/>
     <use xlink:href="#DejaVuSans-67" transform="translate(2252.095703 0)"/>
     <use xlink:href="#DejaVuSans-68" transform="translate(2315.572266 0)"/>
     <use xlink:href="#DejaVuSans-56" transform="translate(2378.951172 0)"/>
     <use xlink:href="#DejaVuSans-6f" transform="translate(2439.609375 0)"/>
     <use xlink:href="#DejaVuSans-6c" transform="translate(2500.791016 0)"/>
     <use xlink:href="#DejaVuSans-61" transform="translate(2528.574219 0)"/>
     <use xlink:href="#DejaVuSans-74" transform="translate(2589.853516 0)"/>
     <use xlink:href="#DejaVuSans-69" transform="translate(2629.0625 0)"/>
     <use xlink:href="#DejaVuSans-6c" transform="translate(2656.845703 0)"/>
     <use xlink:href="#DejaVuSans-69" transform="translate(2684.628906 0)"/>
     <use xlink:href="#DejaVuSans-74" transform="translate(2712.412109 0)"/>
     <use xlink:href="#DejaVuSans-79" transform="translate(2751.621094 0)"/>
     <use xlink:href="#DejaVuSans-2e" transform="translate(2796.550781 0)"/>
     <use xlink:href="#DejaVuSans-64" transform="translate(2828.337891 0)"/>
     <use xlink:href="#DejaVuSans-62" transform="translate(2891.814453 0)"/>
     <use xlink:href="#DejaVuSans-6e" transform="translate(2955.291016 0)"/>
     <use xlink:href="#DejaVuSans-43" transform="translate(3018.669922 0)"/>
     <use xlink:href="#DejaVuSans-75" transform="translate(3088.494141 0)"/>
     <use xlink:href="#DejaVuSans-73" transform="translate(3151.873047 0)"/>
     <use xlink:href="#DejaVuSans-74" transform="translate(3203.972656 0)"/>
     <use xlink:href="#DejaVuSans-6f" transform="translate(3243.181641 0)"/>
     <use xlink:href="#DejaVuSans-6d" transform="translate(3304.363281 0)"/>
     <use xlink:href="#DejaVuSans-41" transform="translate(3401.775391 0)"/>
     <use xlink:href="#DejaVuSans-6c" transform="translate(3470.183594 0)"/>
     <use xlink:href="#DejaVuSans-6c" transform="translate(3497.966797 0)"/>
     <use xlink:href="#DejaVuSans-6f" transform="translate(3525.75 0)"/>
     <use xlink:href="#DejaVuSans-63" transform="translate(3586.931641 0)"/>
     <use xlink:href="#DejaVuSans-61" transform="translate(3641.912109 0)"/>
     <use xlink:href="#DejaVuSans-74" transform="translate(3703.191406 0)"/>
     <use xlink:href="#DejaVuSans-69" transform="translate(3742.400391 0)"/>
     <use xlink:href="#DejaVuSans-6f" transform="translate(3770.183594 0)"/>
     <use xlink:href="#DejaVuSans-6e" transform="translate(3831.365234 0)"/>
     <use xlink:href="#DejaVuSans-4d" transform="translate(3894.744141 0)"/>
     <use xlink:href="#DejaVuSans-61" transform="translate(3981.023438 0)"/>
     <use xlink:href="#DejaVuSans-70" transform="translate(4042.302734 0)"/>
     <use xlink:href="#DejaVuSans-4f" transform="translate(4105.779297 0)"/>
     <use xlink:href="#DejaVuSans-72" transform="translate(4184.490234 0)"/>
     <use xlink:href="#DejaVuSans-64" transform="translate(4223.853516 0)"/>
     <use xlink:href="#DejaVuSans-65" transform="translate(4287.330078 0)"/>
     <use xlink:href="#DejaVuSans-72" transform="translate(4348.853516 0)"/>
     <use xlink:href="#DejaVuSans-42" transform="translate(4389.966797 0)"/>
     <use xlink:href="#DejaVuSans-6f" transform="translate(4458.570312 0)"/>
     <use xlink:href="#DejaVuSans-6f" transform="translate(4519.751953 0)"/>
     <use xlink:href="#DejaVuSans-6b" transform="translate(4580.933594 0)"/>
    </g>
   </g>
  </g>
 </g>
 <defs>
  <clipPath id="p47f374c2ae">
   <rect x="270" y="60.48" width="1674" height="388.08"/>
  </clipPath>
 </defs>
</svg>
